<?xml version="1.0" encoding="UTF-8"?>
<svg width="85px" height="69px" viewBox="0 0 85 69" version="1.1" xmlns="http://www.w3.org/2000/svg" xmlns:xlink="http://www.w3.org/1999/xlink">
    <!-- Generator: Sketch 51.1 (57501) - http://www.bohemiancoding.com/sketch -->
    <title>Group 42</title>
    <desc>Created with Sketch.</desc>
    <defs></defs>
    <g id="Page-1" stroke="none" stroke-width="1" fill="none" fill-rule="evenodd" stroke-linecap="round" stroke-linejoin="round">
        <g id="home" transform="translate(-1136.000000, -7793.000000)" stroke="#1F1410" stroke-width="1.3">
            <g id="Group-42" transform="translate(1136.000000, 7793.000000)">
                <polygon id="Stroke-1" points="0.65 67.8167 83.4 67.8167 83.4 62.3007 0.65 62.3007"></polygon>
                <polygon id="Stroke-3" points="4.878 62.3167 7.775 62.3167 7.775 29.0667 4.878 29.0667"></polygon>
                <polygon id="Stroke-4" points="7.775 62.3167 10.672 62.3167 10.672 29.0667 7.775 29.0667"></polygon>
                <polygon id="Stroke-5" points="75.983 62.3167 78.88 62.3167 78.88 29.0667 75.983 29.0667"></polygon>
                <polygon id="Stroke-6" points="78.881 62.3167 81.778 62.3167 81.778 29.0667 78.881 29.0667"></polygon>
                <polyline id="Stroke-7" points="10.672 62.3167 10.672 20.5667 19.109 24.6497 24.525 22.6497 31.65 20.5667 31.65 19.7327 46.442 19.7327"></polyline>
                <polyline id="Stroke-8" points="75.983 62.3167 75.983 20.5667 67.547 24.6497 62.13 22.6497 54.962 20.5667 54.962 19.7327 43.964 19.7327"></polyline>
                <g id="Group-41" transform="translate(19.000000, 0.466700)">
                    <path d="M0.525,61.8339 L0.525,6.8499 C0.525,6.8499 3.608,0.3499 13.692,0.1839 L24.775,0.1839" id="Stroke-9"></path>
                    <path d="M47.8238,61.8339 L47.8238,6.8499 C47.8238,6.8499 44.7408,0.3499 34.6568,0.1839 L23.5738,0.1839" id="Stroke-11"></path>
                    <polyline id="Stroke-13" points="15.775 3.2665 17.442 3.2665 18.442 5.2665"></polyline>
                    <polygon id="Stroke-15" points="18.4415 5.2665 31.0245 5.2665 28.4415 12.3495 21.2745 12.3495"></polygon>
                    <path d="M23.0875,15.225 C23.0875,15.777 22.6395,16.225 22.0875,16.225 C21.5355,16.225 21.0875,15.777 21.0875,15.225 C21.0875,14.673 21.5355,14.225 22.0875,14.225 C22.6395,14.225 23.0875,14.673 23.0875,15.225 Z" id="Stroke-17"></path>
                    <path d="M28.0148,15.225 C28.0148,15.777 27.5668,16.225 27.0148,16.225 C26.4628,16.225 26.0148,15.777 26.0148,15.225 C26.0148,14.673 26.4628,14.225 27.0148,14.225 C27.5668,14.225 28.0148,14.673 28.0148,15.225 Z" id="Stroke-19"></path>
                    <path d="M5.921,22.0746 L5.921,61.8336" id="Stroke-21"></path>
                    <path d="M12.65,20.226 L12.65,61.834" id="Stroke-23"></path>
                    <path d="M42.6915,22.0746 L42.6915,61.8336" id="Stroke-25"></path>
                    <path d="M35.9625,20.226 L35.9625,61.834" id="Stroke-27"></path>
                    <polyline id="Stroke-29" points="0.2125 35.2875 5.3995 32.8495 12.6505 30.3505 35.6985 30.3505 42.6915 32.3495 47.8235 34.7875"></polyline>
                    <polyline id="Stroke-31" points="0.2125 45.496 5.3995 43.058 12.6505 40.559 35.6985 40.559 42.6915 42.558 47.8235 44.996"></polyline>
                    <polyline id="Stroke-33" points="0.2125 53.6649 5.3995 52.2249 12.6505 51.1959 35.6985 51.1959 42.6915 52.2249 47.8235 53.8499"></polyline>
                    <path d="M17.8375,51.5375 L17.8375,61.8505" id="Stroke-35"></path>
                    <path d="M30.9625,51.1962 L30.9625,61.8342" id="Stroke-37"></path>
                    <path d="M24.3375,19.2665 L24.3375,61.8335" id="Stroke-39"></path>
                </g>
            </g>
        </g>
    </g>
</svg>