<?xml version="1.0" encoding="UTF-8"?>
<svg width="60px" height="55px" viewBox="0 0 60 55" version="1.1" xmlns="http://www.w3.org/2000/svg" xmlns:xlink="http://www.w3.org/1999/xlink">
    <!-- Generator: Sketch 51.1 (57501) - http://www.bohemiancoding.com/sketch -->
    <title>Group 10</title>
    <desc>Created with Sketch.</desc>
    <defs></defs>
    <g id="Page-1" stroke="none" stroke-width="1" fill="none" fill-rule="evenodd" stroke-linecap="round" stroke-linejoin="round">
        <g id="home" transform="translate(-1327.000000, -7806.000000)" stroke="#1F1410" stroke-width="1.3">
            <g id="Group-8" transform="translate(390.000000, 7669.000000)">
                <g id="Group-10" transform="translate(937.000000, 137.000000)">
                    <polygon id="Stroke-1" points="2.65 33.4832 57.15 33.4832 57.15 0.6502 2.65 0.6502"></polygon>
                    <path d="M0.6498,53.7333 L0.6498,51.6503 C0.6498,51.6503 0.6498,48.4003 6.1498,48.4003 C6.1498,48.4003 11.6078,48.3143 11.8168,51.6503 L11.8168,53.7333" id="Stroke-3"></path>
                    <path d="M8.9824,44.9643 L8.9824,42.8813 C8.9824,42.8813 8.9824,39.6313 14.4824,39.6313 C14.4824,39.6313 19.9404,39.5453 20.1494,42.8813 L20.1494,44.9643" id="Stroke-4"></path>
                    <path d="M24.3168,44.9643 L24.3168,42.8813 C24.3168,42.8813 24.3168,39.6313 29.8168,39.6313 C29.8168,39.6313 35.2748,39.5453 35.4838,42.8813 L35.4838,44.9643" id="Stroke-5"></path>
                    <path d="M40.3124,44.9643 L40.3124,42.8813 C40.3124,42.8813 40.3124,39.6313 45.8124,39.6313 C45.8124,39.6313 51.2704,39.5453 51.4794,42.8813 L51.4794,44.9643" id="Stroke-6"></path>
                    <path d="M16.205,54.1342 L16.205,52.0512 C16.205,52.0512 16.205,48.8012 21.705,48.8012 C21.705,48.8012 27.163,48.7152 27.372,52.0512 L27.372,54.1342" id="Stroke-7"></path>
                    <path d="M32.2006,54.1342 L32.2006,52.0512 C32.2006,52.0512 32.2006,48.8012 37.7006,48.8012 C37.7006,48.8012 43.1586,48.7152 43.3676,52.0512 L43.3676,54.1342" id="Stroke-8"></path>
                    <path d="M47.4448,54.1342 L47.4448,52.0512 C47.4448,52.0512 47.4448,48.8012 52.9448,48.8012 C52.9448,48.8012 58.4028,48.7152 58.6118,52.0512 L58.6118,54.1342" id="Stroke-9"></path>
                </g>
            </g>
        </g>
    </g>
</svg>