<?xml version="1.0" encoding="UTF-8"?>
<svg width="90px" height="90px" viewBox="0 0 231 231" version="1.1" xmlns="http://www.w3.org/2000/svg" xmlns:xlink="http://www.w3.org/1999/xlink">
    <!-- Generator: Sketch 51.1 (57501) - http://www.bohemiancoding.com/sketch -->
    <title>Group 7</title>
    <desc>Created with Sketch.</desc>
    <defs>
        <polygon id="path-1" points="0 36 78 36 78 0 0 0"></polygon>
    </defs>
    <g id="Page-1" stroke="none" stroke-width="1" fill="none" fill-rule="evenodd">
        <g id="home" transform="translate(-916.000000, -8424.000000)">
            <g id="Group-7" transform="translate(916.000000, 8424.000000)">
                <circle id="Oval-2" fill="#6E6E70" opacity="0.25" cx="115.5" cy="115.5" r="115.5"></circle>
                <circle id="Oval-2" fill="#6E6E70" opacity="0.5" cx="116" cy="116" r="83"></circle>
                <circle id="Oval-2" fill="#6E6E70" cx="116" cy="116" r="58"></circle>
                <g id="Group-24" transform="translate(79.000000, 98.000000)">
                    <path d="M66.2398345,8.63530279 C66.2398345,8.18506848 66.5950354,7.81927446 67.031747,7.81927446 C67.4674646,7.81927446 67.8229968,8.18506848 67.8229968,8.63530279 C67.8229968,8.86195834 67.7361846,9.06810207 67.572832,9.23151286 L64.1006768,12.8135593 L67.2908581,12.8135593 L69.2119914,10.8321181 C69.7706376,10.2413778 70.078125,9.46124517 70.078125,8.63530279 C70.078125,6.90171264 68.7116618,5.49152542 67.031747,5.49152542 C65.3515009,5.49152542 63.984375,6.90171264 63.984375,8.63530279 L63.984375,9.2968088 L66.2398345,9.2968088 L66.2398345,8.63530279 Z" id="Fill-2" fill="#FFFFFF"></path>
                    <polygon id="Fill-4" fill="#FFFFFF" points="18.8081055 36 17.1790964 33.6517866 17.1790964 36 16.453125 36 16.453125 32.3389831 17.1450195 32.3389831 18.779374 34.6922862 18.779374 32.3389831 19.5 32.3389831 19.5 36"></polygon>
                    <polygon id="Fill-6" fill="#FFFFFF" points="22.6457641 33.0239921 22.6457641 33.8188062 24.1600914 33.8188062 24.1600914 34.5045424 22.6457641 34.5045424 22.6457641 35.314991 24.375 35.314991 24.375 36 21.9375 36 21.9375 32.3389831 24.3261005 32.3389831 24.3261005 33.0239921"></polygon>
                    <polygon id="Fill-8" fill="#FFFFFF" points="30.2799029 36 29.5593022 33.3900258 28.8241475 36 27.9924393 36 26.8125 32.3389831 27.6807706 32.3389831 28.4311893 35.0998334 29.1766383 32.3389831 29.9682342 32.3389831 30.7239775 35.0998334 31.4694266 32.3389831 32.296875 32.3389831 31.111966 36"></polygon>
                    <polygon id="Fill-10" fill="#FFFFFF" points="38.390625 35.2783398 38.390625 36 36.5625 36 36.5625 32.3389831 37.1935195 32.3389831 37.1935195 35.2783398"></polygon>
                    <mask id="mask-2" fill="white">
                        <use xlink:href="#path-1"></use>
                    </mask>
                    <g id="Clip-13"></g>
                    <polygon id="Fill-12" fill="#FFFFFF" mask="url(#mask-2)" points="40.828125 36 42.046875 36 42.046875 32.3389831 40.828125 32.3389831"></polygon>
                    <polygon id="Fill-14" fill="#FFFFFF" mask="url(#mask-2)" points="45.8884403 36 44.484375 32.3389831 45.3527299 32.3389831 46.3279429 35.0998334 47.3084811 32.3389831 48.140625 32.3389831 46.7209392 36"></polygon>
                    <polygon id="Fill-15" fill="#FFFFFF" mask="url(#mask-2)" points="49.359375 36 50.578125 36 50.578125 32.3389831 49.359375 32.3389831"></polygon>
                    <polygon id="Fill-16" fill="#FFFFFF" mask="url(#mask-2)" points="54.7612305 36 53.1322214 33.6517866 53.1322214 36 52.40625 36 52.40625 32.3389831 53.0981445 32.3389831 54.732499 34.6922862 54.732499 32.3389831 55.453125 32.3389831 55.453125 36"></polygon>
                    <path d="M60.9100277,34.1485786 L60.9100277,35.532408 C60.5701372,35.8101748 60.0507182,36 59.6047717,36 C58.6307812,36 57.890625,35.2085254 57.890625,34.1646655 C57.890625,33.1254529 58.6445173,32.3389831 59.6459802,32.3389831 C60.1241907,32.3389831 60.6113457,32.5445377 60.9375,32.8634154 L60.5282898,33.4443306 C60.2896637,33.1976651 59.9583983,33.043231 59.6459802,33.043231 C59.0760887,33.043231 58.6352534,33.5319148 58.6352534,34.1646655 C58.6352534,34.801706 59.0808804,35.2903897 59.6504525,35.2903897 C59.8437172,35.2903897 60.0737183,35.2135302 60.2803998,35.0948447 L60.2803998,34.1485786 L60.9100277,34.1485786 Z" id="Fill-17" fill="#FFFFFF" mask="url(#mask-2)"></path>
                    <path d="M18.8840728,16.8158887 C18.8840728,5.69533006 9.37149826,6.1036053 9.37149826,6.1036053 L0,6.1036053 L0,10.2146439 L0,10.6140584 L0,22.9471741 L0,23.8397223 L0,27.4576271 L9.37149826,27.4576271 C19.4774132,27.4576271 18.8840728,16.8158887 18.8840728,16.8158887 M13.5860252,17.0275239 C13.5860252,23.2065208 9.37149826,22.9471741 9.37149826,22.9471741 L5.29804768,22.9471741 L5.29804768,10.6140584 L9.37149826,10.6140584 C14.0714233,10.6140584 13.5860252,17.0275239 13.5860252,17.0275239" id="Fill-18" fill="#FFFFFF" mask="url(#mask-2)"></path>
                    <path d="M50.8828125,5.49152542 C45.3298295,5.49152542 40.828125,10.4087179 40.828125,16.4745763 C40.828125,22.5404347 45.3298295,27.4576271 50.8828125,27.4576271 C56.4357955,27.4576271 60.9375,22.5404347 60.9375,16.4745763 C60.9375,10.4087179 56.4357955,5.49152542 50.8828125,5.49152542 M50.8828125,22.0429755 C48.0675132,22.0429755 45.7849542,19.5502132 45.7849542,16.4745763 C45.7849542,13.3989394 48.0675132,10.9058353 50.8828125,10.9058353 C53.6981118,10.9058353 55.9806708,13.3989394 55.9806708,16.4745763 C55.9806708,19.5502132 53.6981118,22.0429755 50.8828125,22.0429755" id="Fill-19" fill="#FFFFFF" mask="url(#mask-2)"></path>
                    <path d="M32.6236116,6.10169492 L32.6236116,20.7926539 C32.5863015,21.1634983 32.3837138,21.9716527 31.329211,22.0814062 L31.3308474,22.0861781 L27.782455,22.0861781 L27.7840914,22.0814062 C26.688351,21.9672216 26.5122732,21.0994185 26.4857634,20.7510702 L26.4857634,6.10169492 L21.328125,6.10169492 L21.328125,21.5237763 L21.3369616,21.5265031 C21.3369616,21.5265031 21.3323797,21.5759263 21.328125,21.6638655 L21.328125,22.2647833 C21.3945633,23.8534834 22.0432364,27.455582 26.5626747,27.455582 L26.563002,27.4576271 L32.5594643,27.4576271 L32.5597916,27.455582 C36.8772969,27.455582 37.661792,24.1687692 37.78125,22.4897441 L37.78125,6.10169492 L32.6236116,6.10169492 Z" id="Fill-20" fill="#FFFFFF" mask="url(#mask-2)"></path>
                    <polygon id="Fill-21" fill="#FFFFFF" mask="url(#mask-2)" points="32.90625 0 32.90625 4.27118644 26.8196485 4.27118644 26.8125 0"></polygon>
                    <polygon id="Fill-22" fill="#FFFFFF" mask="url(#mask-2)" points="74.5173798 5.49152542 70.6875 11.871483 70.6875 13.4126409 73.456773 13.4126409 73.456773 11.3583227 73.3854447 11.3583227 74.6105564 9.39389147 74.6105564 15.8644068 76.78125 15.8644068 76.78125 5.49152542"></polygon>
                    <polygon id="Fill-23" fill="#FFFFFF" mask="url(#mask-2)" points="76.171875 13.4237288 78 13.4237288 78 11.5932203 76.171875 11.5932203"></polygon>
                    <polygon id="Fill-1" fill="#FFFFFF" mask="url(#mask-2)" points="63.984375 16.4745763 71.90625 16.4745763 71.90625 14.6440678 63.984375 14.6440678"></polygon>
                </g>
            </g>
        </g>
    </g>
</svg>