<?xml version="1.0" encoding="UTF-8"?>
<svg width="116px" height="116px" viewBox="0 0 116 116" version="1.1" xmlns="http://www.w3.org/2000/svg" xmlns:xlink="http://www.w3.org/1999/xlink">
    <!-- Generator: Sketch 50.2 (55047) - http://www.bohemiancoding.com/sketch -->
    <title>Group 5</title>
    <desc>Created with Sketch.</desc>
    <defs></defs>
    <g id="Page-1" stroke="none" stroke-width="1" fill="none" fill-rule="evenodd">
        <g id="home" transform="translate(-902.000000, -3678.000000)">
            <g id="Group-5" transform="translate(902.000000, 3678.000000)">
                <circle id="Oval-4" fill="#C6A043" cx="58" cy="58" r="58"></circle>
                <path d="M41.1824006,64.0335835 C41.8310141,64.0335835 42.4333767,63.9407159 42.987286,63.7528211 C43.5411953,63.5660062 44.019121,63.2895632 44.4188607,62.9245721 C44.8208029,62.5585012 45.1357493,62.1233195 45.3648013,61.6179472 C45.5938532,61.1114951 45.7083792,60.559689 45.7083792,59.9603693 C45.7083792,58.6505048 45.3119431,57.6753955 44.5201722,57.0393607 C43.7273,56.403326 42.6337972,56.0836888 41.2396636,56.0836888 L39.1198318,56.0836888 L39.1198318,55.2694779 L43.2449695,49.0333135 L44.5631194,47.7968792 L42.7009711,48.0787215 L37.0286315,48.0787215 L37.0286315,46 L47.2555811,46 L47.2555811,46.8142109 L42.7009711,53.5276713 L41.6977675,54.3418822 L41.6977675,54.3991145 L42.6723396,54.2025809 C43.435479,54.2209384 44.1424567,54.3570002 44.7921714,54.6086064 C45.4407849,54.8623724 46.0046051,55.2273635 46.4814296,55.7046596 C46.9593553,56.1819556 47.3315647,56.7542789 47.5991591,57.4183899 C47.8667534,58.0835808 48,58.8373198 48,59.6796069 C48,60.6903515 47.8183001,61.589871 47.4560016,62.3760056 C47.0926019,63.1632201 46.6014616,63.8230117 45.9803784,64.3564602 C45.3592952,64.8899088 44.6291921,65.2970142 43.7889679,65.5788564 C42.9487436,65.8596188 42.0611673,66 41.1251377,66 C40.2661928,66 39.4920412,65.9341288 38.8048854,65.8034663 C38.1177295,65.671724 37.5153669,65.5043464 37,65.2970142 L37.6023626,63.3036013 C38.0406447,63.5098537 38.5615177,63.6826305 39.1627791,63.8230117 C39.7640404,63.9633929 40.4379818,64.0335835 41.1824006,64.0335835" id="Fill-1" fill="#FFFFFF"></path>
                <path d="M41.1824006,64.0335835 C41.8310141,64.0335835 42.4333767,63.9407159 42.987286,63.7528211 C43.5411953,63.5660062 44.019121,63.2895632 44.4188607,62.9245721 C44.8208029,62.5585012 45.1357493,62.1233195 45.3648013,61.6179472 C45.5938532,61.1114951 45.7083792,60.559689 45.7083792,59.9603693 C45.7083792,58.6505048 45.3119431,57.6753955 44.5201722,57.0393607 C43.7273,56.403326 42.6337972,56.0836888 41.2396636,56.0836888 L39.1198318,56.0836888 L39.1198318,55.2694779 L43.2449695,49.0333135 L44.5631194,47.7968792 L42.7009711,48.0787215 L37.0286315,48.0787215 L37.0286315,46 L47.2555811,46 L47.2555811,46.8142109 L42.7009711,53.5276713 L41.6977675,54.3418822 L41.6977675,54.3991145 L42.6723396,54.2025809 C43.435479,54.2209384 44.1424567,54.3570002 44.7921714,54.6086064 C45.4407849,54.8623724 46.0046051,55.2273635 46.4814296,55.7046596 C46.9593553,56.1819556 47.3315647,56.7542789 47.5991591,57.4183899 C47.8667534,58.0835808 48,58.8373198 48,59.6796069 C48,60.6903515 47.8183001,61.589871 47.4560016,62.3760056 C47.0926019,63.1632201 46.6014616,63.8230117 45.9803784,64.3564602 C45.3592952,64.8899088 44.6291921,65.2970142 43.7889679,65.5788564 C42.9487436,65.8596188 42.0611673,66 41.1251377,66 C40.2661928,66 39.4920412,65.9341288 38.8048854,65.8034663 C38.1177295,65.671724 37.5153669,65.5043464 37,65.2970142 L37.6023626,63.3036013 C38.0406447,63.5098537 38.5615177,63.6826305 39.1627791,63.8230117 C39.7640404,63.9633929 40.4379818,64.0335835 41.1824006,64.0335835 Z" id="Stroke-3" stroke="#FFFFFF" stroke-width="0.5"></path>
                <path d="M61.6946076,60.0607412 C61.6946076,58.7535308 61.3892152,57.768079 60.7784303,57.1054476 C60.1665777,56.4417543 59.2226375,56.1104386 57.9444741,56.1104386 C57.0379071,56.1104386 56.2552056,56.3313157 55.5985051,56.77307 C54.939669,57.2158862 54.4815804,57.7128597 54.2221036,58.2650526 C54.1857982,58.5230965 54.1676455,58.7344165 54.1676455,58.9011362 L54.1676455,59.4533291 C54.1676455,60.0235744 54.2455953,60.5853244 54.4036305,61.1385792 C54.560598,61.690772 54.8061933,62.1834979 55.1393486,62.615695 C55.472504,63.048954 55.884677,63.3993841 56.3758676,63.6659233 C56.8659904,63.9324626 57.4447411,64.0662631 58.1121196,64.0662631 C58.648158,64.0662631 59.1350774,63.9653818 59.5696743,63.7625571 C60.0042712,63.5597324 60.3801388,63.283636 60.6951415,62.9342678 C61.0090763,62.5838377 61.2546716,62.1601359 61.4308596,61.6631624 C61.6059797,61.1661888 61.6946076,60.6320484 61.6946076,60.0607412 M64,59.8398641 C64,60.6872677 63.8707955,61.4836997 63.6113187,62.22916 C63.351842,62.9756823 62.972771,63.6287565 62.4730379,64.1905065 C61.9722371,64.7522566 61.351842,65.1940108 60.6118526,65.5168313 C59.8707955,65.8385898 59.0282968,66 58.0843566,66 C57.1575013,66 56.3246129,65.8523946 55.5835558,65.5582457 C54.8424987,65.2630349 54.2039509,64.8255283 53.6668446,64.2457258 C53.1297384,63.6659233 52.7175654,62.9523203 52.4313935,62.1049166 C52.1441538,61.257513 52,60.2816183 52,59.1761708 C52,57.3539344 52.2370529,55.6739938 52.709023,54.1352872 C53.1809931,52.5987045 53.8344901,51.2585749 54.6673785,50.1159605 C55.500267,48.974408 56.4869194,48.049485 57.6252002,47.3401296 C58.7645489,46.631836 60.0010678,46.1847722 61.3336893,46 L61.8056594,47.768079 C60.7688201,47.9528512 59.8248799,48.3022194 58.972771,48.8183073 C58.120662,49.3333333 57.3753337,49.969417 56.7367859,50.7244345 C56.0982381,51.4794521 55.5750133,52.3257938 55.1671116,53.2655835 C54.7592098,54.2043114 54.4815804,55.1717107 54.3342232,56.1656579 C54.6300053,55.6686843 55.1297384,55.2131252 55.8334223,54.7979187 C56.5371062,54.383774 57.3988254,54.1767017 58.417512,54.1767017 C60.1580352,54.1767017 61.5237587,54.6747372 62.5146823,55.6686843 C63.5045382,56.6626314 64,58.0537326 64,59.8398641" id="Fill-5" fill="#FFFFFF"></path>
                <path d="M61.6946076,60.0607412 C61.6946076,58.7535308 61.3892152,57.768079 60.7784303,57.1054476 C60.1665777,56.4417543 59.2226375,56.1104386 57.9444741,56.1104386 C57.0379071,56.1104386 56.2552056,56.3313157 55.5985051,56.77307 C54.939669,57.2158862 54.4815804,57.7128597 54.2221036,58.2650526 C54.1857982,58.5230965 54.1676455,58.7344165 54.1676455,58.9011362 L54.1676455,59.4533291 C54.1676455,60.0235744 54.2455953,60.5853244 54.4036305,61.1385792 C54.560598,61.690772 54.8061933,62.1834979 55.1393486,62.615695 C55.472504,63.048954 55.884677,63.3993841 56.3758676,63.6659233 C56.8659904,63.9324626 57.4447411,64.0662631 58.1121196,64.0662631 C58.648158,64.0662631 59.1350774,63.9653818 59.5696743,63.7625571 C60.0042712,63.5597324 60.3801388,63.283636 60.6951415,62.9342678 C61.0090763,62.5838377 61.2546716,62.1601359 61.4308596,61.6631624 C61.6059797,61.1661888 61.6946076,60.6320484 61.6946076,60.0607412 Z M64,59.8398641 C64,60.6872677 63.8707955,61.4836997 63.6113187,62.22916 C63.351842,62.9756823 62.972771,63.6287565 62.4730379,64.1905065 C61.9722371,64.7522566 61.351842,65.1940108 60.6118526,65.5168313 C59.8707955,65.8385898 59.0282968,66 58.0843566,66 C57.1575013,66 56.3246129,65.8523946 55.5835558,65.5582457 C54.8424987,65.2630349 54.2039509,64.8255283 53.6668446,64.2457258 C53.1297384,63.6659233 52.7175654,62.9523203 52.4313935,62.1049166 C52.1441538,61.257513 52,60.2816183 52,59.1761708 C52,57.3539344 52.2370529,55.6739938 52.709023,54.1352872 C53.1809931,52.5987045 53.8344901,51.2585749 54.6673785,50.1159605 C55.500267,48.974408 56.4869194,48.049485 57.6252002,47.3401296 C58.7645489,46.631836 60.0010678,46.1847722 61.3336893,46 L61.8056594,47.768079 C60.7688201,47.9528512 59.8248799,48.3022194 58.972771,48.8183073 C58.120662,49.3333333 57.3753337,49.969417 56.7367859,50.7244345 C56.0982381,51.4794521 55.5750133,52.3257938 55.1671116,53.2655835 C54.7592098,54.2043114 54.4815804,55.1717107 54.3342232,56.1656579 C54.6300053,55.6686843 55.1297384,55.2131252 55.8334223,54.7979187 C56.5371062,54.383774 57.3988254,54.1767017 58.417512,54.1767017 C60.1580352,54.1767017 61.5237587,54.6747372 62.5146823,55.6686843 C63.5045382,56.6626314 64,58.0537326 64,59.8398641 Z" id="Stroke-7" stroke="#FFFFFF" stroke-width="0.5"></path>
                <path d="M69.35067,56 C69.35067,57.1967718 69.4301508,58.2884146 69.5912898,59.2738664 C69.75134,60.2582563 70.0017588,61.10566 70.3414573,61.8150154 C70.6822446,62.5243708 71.1112228,63.0765637 71.6305695,63.4726558 C72.1499162,63.868748 72.7683417,64.0662631 73.4858459,64.0662631 C74.9208543,64.0662631 75.9737018,63.4163746 76.6432998,62.1187215 C77.3128978,60.8200064 77.64933,58.7811405 77.64933,56 C77.64933,54.8212807 77.5785595,53.7349474 77.4370184,52.7399384 C77.2943886,51.7459913 77.0592127,50.8900924 76.7282245,50.1711798 C76.398325,49.4533291 75.968258,48.9000743 75.440201,48.5135393 C74.9110553,48.1270044 74.2599665,47.9337369 73.4858459,47.9337369 C72.0693467,47.9337369 71.0262982,48.587873 70.3556114,49.8950834 C69.6860134,51.2022937 69.35067,53.236912 69.35067,56 M67,56 C67,52.6847191 67.5520101,50.1902941 68.6560302,48.5135393 C69.761139,46.8389084 71.3703518,46 73.4858459,46 C75.7701005,46 77.4261307,46.8240416 78.4561139,48.4721249 C79.4850084,50.1202081 80,52.6294998 80,56 C80,59.3152809 79.4469012,61.8107678 78.3428811,63.4853987 C77.238861,65.1621536 75.6187605,66 73.4858459,66 C71.2386097,66 69.5956449,65.1249867 68.5569514,63.3749602 C67.518258,61.6259955 67,59.1676755 67,56" id="Fill-9" fill="#FFFFFF"></path>
                <path d="M69.35067,56 C69.35067,57.1967718 69.4301508,58.2884146 69.5912898,59.2738664 C69.75134,60.2582563 70.0017588,61.10566 70.3414573,61.8150154 C70.6822446,62.5243708 71.1112228,63.0765637 71.6305695,63.4726558 C72.1499162,63.868748 72.7683417,64.0662631 73.4858459,64.0662631 C74.9208543,64.0662631 75.9737018,63.4163746 76.6432998,62.1187215 C77.3128978,60.8200064 77.64933,58.7811405 77.64933,56 C77.64933,54.8212807 77.5785595,53.7349474 77.4370184,52.7399384 C77.2943886,51.7459913 77.0592127,50.8900924 76.7282245,50.1711798 C76.398325,49.4533291 75.968258,48.9000743 75.440201,48.5135393 C74.9110553,48.1270044 74.2599665,47.9337369 73.4858459,47.9337369 C72.0693467,47.9337369 71.0262982,48.587873 70.3556114,49.8950834 C69.6860134,51.2022937 69.35067,53.236912 69.35067,56 Z M67,56 C67,52.6847191 67.5520101,50.1902941 68.6560302,48.5135393 C69.761139,46.8389084 71.3703518,46 73.4858459,46 C75.7701005,46 77.4261307,46.8240416 78.4561139,48.4721249 C79.4850084,50.1202081 80,52.6294998 80,56 C80,59.3152809 79.4469012,61.8107678 78.3428811,63.4853987 C77.238861,65.1621536 75.6187605,66 73.4858459,66 C71.2386097,66 69.5956449,65.1249867 68.5569514,63.3749602 C67.518258,61.6259955 67,59.1676755 67,56 Z" id="Stroke-11" stroke="#FFFFFF" stroke-width="0.5"></path>
                <path d="M84.7873501,44 C84.7873501,44.7186478 85.0098146,45.2813522 85.4536532,45.6881134 C85.8985823,46.0948746 86.4133043,46.2977099 87,46.2977099 C87.5856052,46.2977099 88.1014177,46.0948746 88.5463468,45.6881134 C88.9901854,45.2813522 89.2126499,44.7186478 89.2126499,44 C89.2126499,43.2813522 88.9901854,42.7186478 88.5463468,42.3118866 C88.1014177,41.9062159 87.5856052,41.7022901 87,41.7022901 C86.4133043,41.7022901 85.8985823,41.9062159 85.4536532,42.3118866 C85.0098146,42.7186478 84.7873501,43.2813522 84.7873501,44 M83,44 C83,43.4143948 83.1035987,42.8745911 83.3118866,42.3827699 C83.5201745,41.8909487 83.8037077,41.4711014 84.1635769,41.1210469 C84.5223555,40.7709924 84.9476554,40.4972737 85.4394766,40.2977099 C85.9312977,40.0992366 86.4514722,40 87,40 C87.5485278,40 88.0676118,40.0905125 88.5594329,40.2693566 C89.0512541,40.4492912 89.4776445,40.7142857 89.8364231,41.0643402 C90.1952017,41.4143948 90.4798255,41.8353326 90.6881134,42.3260632 C90.8953108,42.8189749 91,43.3762268 91,44 C91,44.6237732 90.8953108,45.1821156 90.6881134,45.6739368 C90.4798255,46.1657579 90.1952017,46.5866957 89.8364231,46.9356598 C89.4776445,47.2868048 89.0512541,47.5507088 88.5594329,47.7306434 C88.0676118,47.910578 87.5485278,48 87,48 C86.4514722,48 85.9312977,47.910578 85.4394766,47.7306434 C84.9476554,47.5507088 84.5223555,47.2868048 84.1635769,46.9356598 C83.8037077,46.5866957 83.5201745,46.1657579 83.3118866,45.6739368 C83.1035987,45.1821156 83,44.6237732 83,44" id="Fill-13" fill="#FFFFFF"></path>
                <path d="M84.7873501,44 C84.7873501,44.7186478 85.0098146,45.2813522 85.4536532,45.6881134 C85.8985823,46.0948746 86.4133043,46.2977099 87,46.2977099 C87.5856052,46.2977099 88.1014177,46.0948746 88.5463468,45.6881134 C88.9901854,45.2813522 89.2126499,44.7186478 89.2126499,44 C89.2126499,43.2813522 88.9901854,42.7186478 88.5463468,42.3118866 C88.1014177,41.9062159 87.5856052,41.7022901 87,41.7022901 C86.4133043,41.7022901 85.8985823,41.9062159 85.4536532,42.3118866 C85.0098146,42.7186478 84.7873501,43.2813522 84.7873501,44 Z M83,44 C83,43.4143948 83.1035987,42.8745911 83.3118866,42.3827699 C83.5201745,41.8909487 83.8037077,41.4711014 84.1635769,41.1210469 C84.5223555,40.7709924 84.9476554,40.4972737 85.4394766,40.2977099 C85.9312977,40.0992366 86.4514722,40 87,40 C87.5485278,40 88.0676118,40.0905125 88.5594329,40.2693566 C89.0512541,40.4492912 89.4776445,40.7142857 89.8364231,41.0643402 C90.1952017,41.4143948 90.4798255,41.8353326 90.6881134,42.3260632 C90.8953108,42.8189749 91,43.3762268 91,44 C91,44.6237732 90.8953108,45.1821156 90.6881134,45.6739368 C90.4798255,46.1657579 90.1952017,46.5866957 89.8364231,46.9356598 C89.4776445,47.2868048 89.0512541,47.5507088 88.5594329,47.7306434 C88.0676118,47.910578 87.5485278,48 87,48 C86.4514722,48 85.9312977,47.910578 85.4394766,47.7306434 C84.9476554,47.5507088 84.5223555,47.2868048 84.1635769,46.9356598 C83.8037077,46.5866957 83.5201745,46.1657579 83.3118866,45.6739368 C83.1035987,45.1821156 83,44.6237732 83,44 Z" id="Stroke-15" stroke="#FFFFFF" stroke-width="0.5"></path>
                <path d="M54.202669,76 C50.5477039,76 18.4333385,75.7405478 16.2199477,66.7375567 C15.7372967,64.7732874 16.0498505,63.0003641 17.1491041,61.466353 C20.5297874,56.7475663 30.3454632,56.0308296 30.7611385,56.0016412 C31.1853185,55.9735339 31.5807947,56.3097407 31.6094986,56.7572957 C31.6392656,57.2037697 31.3065128,57.5907859 30.8674492,57.6210553 C30.7728326,57.6264606 21.3781476,58.3150899 18.4365278,62.4220019 C17.6189978,63.5657537 17.3999976,64.8478799 17.7678329,66.3440542 C18.5385862,69.4791016 25.1872634,71.9503837 36.488101,73.3027782 C45.3756836,74.3665322 54.1154942,74.3784238 54.202669,74.3784238 C54.6427957,74.3784238 55,74.7416569 55,75.1892119 C55,75.6367669 54.6427957,76 54.202669,76" id="Fill-17" fill="#FFFFFF"></path>
                <path d="M54.202669,76 C50.5477039,76 18.4333385,75.7405478 16.2199477,66.7375567 C15.7372967,64.7732874 16.0498505,63.0003641 17.1491041,61.466353 C20.5297874,56.7475663 30.3454632,56.0308296 30.7611385,56.0016412 C31.1853185,55.9735339 31.5807947,56.3097407 31.6094986,56.7572957 C31.6392656,57.2037697 31.3065128,57.5907859 30.8674492,57.6210553 C30.7728326,57.6264606 21.3781476,58.3150899 18.4365278,62.4220019 C17.6189978,63.5657537 17.3999976,64.8478799 17.7678329,66.3440542 C18.5385862,69.4791016 25.1872634,71.9503837 36.488101,73.3027782 C45.3756836,74.3665322 54.1154942,74.3784238 54.202669,74.3784238 C54.6427957,74.3784238 55,74.7416569 55,75.1892119 C55,75.6367669 54.6427957,76 54.202669,76 Z" id="Stroke-19" stroke="#FFFFFF" stroke-width="0.5"></path>
                <path d="M62.797331,76 C62.3572043,76 62,75.6367628 62,75.1892027 C62,74.7416426 62.3572043,74.3784054 62.797331,74.3784054 C62.8845058,74.3784054 71.6360106,74.3654326 80.5235931,73.3016666 C91.8180521,71.9492567 98.4624769,69.4779465 99.2321671,66.3439446 C99.6010655,64.8477533 99.3810022,63.5645315 98.5624091,62.4207667 C95.6154738,58.3084028 86.2271674,57.626252 86.1325508,57.6208467 C85.6934872,57.5905769 85.3607344,57.2035564 85.3894383,56.7570773 C85.4192053,56.3095172 85.8040504,55.9754687 86.2388615,56.0014142 C86.6545368,56.0306029 96.4702126,56.7473477 99.8508959,61.466188 C100.95015,63.0002165 101.262703,64.77316 100.780052,66.7374516 C98.5666615,75.7405449 66.4522961,76 62.797331,76" id="Fill-21" fill="#FFFFFF"></path>
                <path d="M62.797331,76 C62.3572043,76 62,75.6367628 62,75.1892027 C62,74.7416426 62.3572043,74.3784054 62.797331,74.3784054 C62.8845058,74.3784054 71.6360106,74.3654326 80.5235931,73.3016666 C91.8180521,71.9492567 98.4624769,69.4779465 99.2321671,66.3439446 C99.6010655,64.8477533 99.3810022,63.5645315 98.5624091,62.4207667 C95.6154738,58.3084028 86.2271674,57.626252 86.1325508,57.6208467 C85.6934872,57.5905769 85.3607344,57.2035564 85.3894383,56.7570773 C85.4192053,56.3095172 85.8040504,55.9754687 86.2388615,56.0014142 C86.6545368,56.0306029 96.4702126,56.7473477 99.8508959,61.466188 C100.95015,63.0002165 101.262703,64.77316 100.780052,66.7374516 C98.5666615,75.7405449 66.4522961,76 62.797331,76 Z" id="Stroke-23" stroke="#FFFFFF" stroke-width="0.5"></path>
                <polygon id="Fill-25" fill="#FFFFFF" points="54 70 54 82 60 75.4545455"></polygon>
                <polygon id="Stroke-27" stroke="#FFFFFF" stroke-width="0.5" points="54 70 54 82 60 75.4545455"></polygon>
            </g>
        </g>
    </g>
</svg>