<?xml version="1.0" encoding="UTF-8"?>
<svg width="180px" height="83px" viewBox="0 0 180 83" version="1.1" xmlns="http://www.w3.org/2000/svg" xmlns:xlink="http://www.w3.org/1999/xlink">
    <!-- Generator: Sketch 51.1 (57501) - http://www.bohemiancoding.com/sketch -->
    <title>Group 24</title>
    <desc>Created with Sketch.</desc>
    <defs>
        <polygon id="path-1" points="0 83 181 83 181 0 0 0"></polygon>
    </defs>
    <g id="Page-1" stroke="none" stroke-width="1" fill="none" fill-rule="evenodd">
        <g id="home" transform="translate(-225.000000, -40.000000)">
            <g id="Group-24" transform="translate(225.000000, 40.000000)">
                <path d="M153.181774,20.2990942 C153.181774,19.2537585 153.997825,18.4044729 155.001142,18.4044729 C156.002175,18.4044729 156.818988,19.2537585 156.818988,20.2990942 C156.818988,20.8253338 156.619542,21.3039499 156.24425,21.6833505 L148.267196,30 L155.596433,30 L160.010114,25.3995705 C161.293568,24.0280138 162,22.2167336 162,20.2990942 C162,16.2741152 158.860638,13 155.001142,13 C151.140884,13 148,16.2741152 148,20.2990942 L148,21.8349519 L153.181774,21.8349519 L153.181774,20.2990942 Z" id="Fill-2" fill="#FFFFFF"></path>
                <polygon id="Fill-4" fill="#FFFFFF" points="44.4104167 83 40.6678728 77.868719 40.6678728 83 39 83 39 75 40.5895833 75 44.3444079 80.1424032 44.3444079 75 46 75 46 83"></polygon>
                <polygon id="Fill-6" fill="#FFFFFF" points="52.7434194 76.4968716 52.7434194 78.2336876 56.4709941 78.2336876 56.4709941 79.7321482 52.7434194 79.7321482 52.7434194 81.5031284 57 81.5031284 57 83 51 83 51 75 56.879632 75 56.879632 76.4968716"></polygon>
                <polygon id="Fill-8" fill="#FFFFFF" points="69.5867961 83 68.0100971 77.2967229 66.4015534 83 64.5817476 83 62 75 63.8998058 75 65.5417476 81.0329692 67.1728155 75 68.9048544 75 70.5584466 81.0329692 72.1895146 75 74 75 71.4073786 83"></polygon>
                <polygon id="Fill-10" fill="#FFFFFF" points="90 81.4230387 90 83 85 83 85 75 86.7258652 75 86.7258652 81.4230387"></polygon>
                <mask id="mask-2" fill="white">
                    <use xlink:href="#path-1"></use>
                </mask>
                <g id="Clip-13"></g>
                <polygon id="Fill-12" fill="#FFFFFF" mask="url(#mask-2)" points="95 83 97 83 97 75 95 75"></polygon>
                <polygon id="Fill-14" fill="#FFFFFF" mask="url(#mask-2)" points="105.072143 83 102 75 103.89999 75 106.03379 81.0329692 108.179241 75 110 75 106.893679 83"></polygon>
                <polygon id="Fill-15" fill="#FFFFFF" mask="url(#mask-2)" points="115 83 117 83 117 75 115 75"></polygon>
                <polygon id="Fill-16" fill="#FFFFFF" mask="url(#mask-2)" points="127.410417 83 123.667873 77.868719 123.667873 83 122 83 122 75 123.589583 75 127.344408 80.1424032 127.344408 75 129 75 129 83"></polygon>
                <path d="M140.936884,78.9543013 L140.936884,81.9782248 C140.156008,82.5851968 138.962676,83 137.938142,83 C135.700461,83 134,81.2704814 134,78.9894542 C134,76.7185822 135.732019,75 138.032816,75 C139.131474,75 140.250681,75.4491749 141,76.1459818 L140.059866,77.4153891 C139.511638,76.8763793 138.750577,76.5389122 138.032816,76.5389122 C136.723527,76.5389122 135.710736,77.6067767 135.710736,78.9894542 C135.710736,80.3815057 136.734536,81.4493702 138.043091,81.4493702 C138.487104,81.4493702 139.015517,81.2814178 139.490354,81.0220682 L139.490354,78.9543013 L140.936884,78.9543013 Z" id="Fill-17" fill="#FFFFFF" mask="url(#mask-2)"></path>
                <path d="M42.9850856,38.5831225 C42.9850856,13.0676184 21.3319795,14.0043833 21.3319795,14.0043833 L0,14.0043833 L0,23.4369329 L0,24.3533673 L0,52.651016 L0,54.6989185 L0,63 L21.3319795,63 C44.3356833,63 42.9850856,38.5831225 42.9850856,38.5831225 M30.9253443,39.0687076 C30.9253443,53.2460728 21.3319795,52.651016 21.3319795,52.651016 L12.0597413,52.651016 L12.0597413,24.3533673 L21.3319795,24.3533673 C32.0302374,24.3533673 30.9253443,39.0687076 30.9253443,39.0687076" id="Fill-18" fill="#FFFFFF" mask="url(#mask-2)"></path>
                <path d="M117.5,13 C104.521466,13 94,24.1926834 94,38 C94,51.8073166 104.521466,63 117.5,63 C130.478534,63 141,51.8073166 141,38 C141,24.1926834 130.478534,13 117.5,13 M117.5,50.6749829 C110.920031,50.6749829 105.585192,45.000871 105.585192,38 C105.585192,30.999129 110.920031,25.3242394 117.5,25.3242394 C124.079969,25.3242394 129.414808,30.999129 129.414808,38 C129.414808,45.000871 124.079969,50.6749829 117.5,50.6749829" id="Fill-19" fill="#FFFFFF" mask="url(#mask-2)"></path>
                <path d="M75.7744868,14 L75.7744868,47.7075892 C75.6860479,48.558471 75.2058402,50.4127364 72.7062778,50.6645599 L72.7101567,50.6755087 L64.2991526,50.6755087 L64.3030315,50.6645599 C61.7057209,50.4025696 61.2883514,48.4114436 61.2255132,47.6121778 L61.2255132,14 L49,14 L49,49.3851089 L49.0209461,49.3913654 C49.0209461,49.3913654 49.0100851,49.5047642 49,49.7065358 L49,51.0853084 C49.1574833,54.7304924 50.6950788,62.9953076 61.4078215,62.9953076 L61.4085972,63 L75.622434,63 L75.6232097,62.9953076 C85.8572963,62.9953076 87.7168404,55.4538983 88,51.6014684 L88,14 L75.7744868,14 Z" id="Fill-20" fill="#FFFFFF" mask="url(#mask-2)"></path>
                <polygon id="Fill-21" fill="#FFFFFF" mask="url(#mask-2)" points="76 0 76 10 61.0175962 10 61 0"></polygon>
                <polygon id="Fill-22" fill="#FFFFFF" mask="url(#mask-2)" points="173.427396 13 164 27.7614706 164 31.3272868 170.816672 31.3272868 170.816672 26.5741585 170.641095 26.5741585 173.656754 22.0290038 173.656754 37 179 37 179 13"></polygon>
                <polygon id="Fill-23" fill="#FFFFFF" mask="url(#mask-2)" points="176 32 180 32 180 27 176 27"></polygon>
                <polygon id="Fill-1" fill="#FFFFFF" mask="url(#mask-2)" points="148 39 166 39 166 34 148 34"></polygon>
            </g>
        </g>
    </g>
</svg>