<svg xmlns="http://www.w3.org/2000/svg" viewBox="0 0 417.18506 205.24051"><defs><style>.cls-1{fill:#ec008c;}.cls-2{fill:#414042;}</style></defs><title>logo2G</title><g id="Layer_2" data-name="Layer 2"><g id="Layer_1-2" data-name="Layer 1"><path class="cls-1" d="M99.74553,141.05857v22.3961a9.299,9.299,0,1,1-18.598,0V135.69434a9.29583,9.29583,0,0,1,4.64908-8.05463l66.48763-38.3894a9.29774,9.29774,0,0,1,9.299,0l19.30982,11.14918V56.59824a11.90128,11.90128,0,0,0-5.3663-9.29775L95.81781,1.27677a11.92881,11.92881,0,0,0-10.73881,0L5.36754,47.30049A11.90258,11.90258,0,0,0,0,56.59824V83.3639L23.95766,97.19851,81.14754,64.1779V41.78221a9.299,9.299,0,0,1,18.598,0V69.54668a9.30406,9.30406,0,0,1-4.64908,8.05463L28.608,115.99071a9.31383,9.31383,0,0,1-9.299,0L0,104.84153V148.6432a11.91861,11.91861,0,0,0,5.36754,9.30231L85.079,203.96218a11.91587,11.91587,0,0,0,10.73881,0l79.709-46.01668a11.9173,11.9173,0,0,0,5.3663-9.30231V121.87754L156.9321,108.038Z"/><path class="cls-1" d="M218.83649,80.75467l-16.49023-13.281c10.5359-14.35265,20.765-22.13811,39.84993-22.13811,22.74974,0,36.79678,13.12982,36.79678,33.1316,0,17.86338-9.16068,26.87167-28.09326,41.52744l-17.40663,13.43915h46.56826v20.30449H200.97188v-18.6249l35.57519-29.16412c13.28345-10.99307,18.475-16.79624,18.475-25.65091,0-9.00871-5.95473-13.89383-14.35265-13.89383-8.2447,0-13.89259,4.57993-21.83292,14.35016"/><path class="cls-1" d="M351.71652,155.57189c-33.28274,0-56.18694-23.36136-56.18694-54.96659v-.30519c0-30.3824,23.66614-55.26971,56.03579-55.26971,19.2386,0,30.84163,5.18824,41.98709,14.65536L378.74224,77.54913c-8.24553-6.86989-15.57341-10.83944-27.94129-10.83944-17.10019,0-30.68842,15.11666-30.68842,33.28523v.30519c0,19.54254,13.43584,33.89519,32.36841,33.89519,8.55072,0,16.18338-2.1384,22.13811-6.41314V112.51394H350.95375V92.207h46.41711v46.41711a69.37512,69.37512,0,0,1-45.65435,16.9478"/><polygon class="cls-2" points="165.68 195.485 165.68 175.661 170.04 175.661 170.04 191.52 179.925 191.52 179.925 195.485 165.68 195.485"/><rect class="cls-2" x="183.41162" y="175.66146" width="4.36087" height="19.8233"/><polygon class="cls-2" points="202.898 195.625 199.047 195.625 191.032 175.661 195.847 175.661 201.029 189.621 206.212 175.661 210.913 175.661 202.898 195.625"/><rect class="cls-2" x="214.17292" y="175.66146" width="4.36253" height="19.8233"/><polygon class="cls-2" points="237.399 195.485 227.798 182.882 227.798 195.485 223.493 195.485 223.493 175.661 227.515 175.661 236.803 187.865 236.803 175.661 241.11 175.661 241.11 195.485 237.399 195.485"/><path class="cls-2" d="M255.415,195.82391c-6.17338,0-10.4212-4.33354-10.4212-10.1951v-.05673a10.17634,10.17634,0,0,1,10.393-10.25183,10.88157,10.88157,0,0,1,7.78753,2.7198l-2.7463,3.314a7.29935,7.29935,0,0,0-5.18244-2.0121,5.95421,5.95421,0,0,0-5.69344,6.17379v.05632a5.94112,5.94112,0,0,0,6.00525,6.28684,6.97255,6.97255,0,0,0,4.1062-1.18681v-2.83492H255.273V184.071h8.61035v8.60869a12.86273,12.86273,0,0,1-8.46831,3.14425"/><path class="cls-2" d="M285.8666,195.82391a10.00609,10.00609,0,0,1-10.16694-10.1951v-.05673a10.07691,10.07691,0,0,1,10.33548-10.25183,10.22586,10.22586,0,0,1,7.81693,3.05894l-2.77487,3.1985a7.32279,7.32279,0,0,0-5.06939-2.23572,5.8729,5.8729,0,0,0-5.74976,6.17379v.05632c0,3.40016,2.35332,6.23052,5.74976,6.23052a7.15615,7.15615,0,0,0,5.20977-2.32185l2.7757,2.803a10.13546,10.13546,0,0,1-8.12668,3.54013"/><path class="cls-2" d="M306.54543,195.82391a10.15776,10.15776,0,0,1-10.5094-10.1951v-.05673a10.54028,10.54028,0,0,1,21.071-.05632v.05632a10.25086,10.25086,0,0,1-10.56158,10.25183m6.0007-10.25183a6.02178,6.02178,0,0,0-6.0007-6.23011,5.9277,5.9277,0,0,0-5.94894,6.17379v.05632a6.02115,6.02115,0,0,0,6.00318,6.23052,5.92838,5.92838,0,0,0,5.94645-6.17379Z"/><polygon class="cls-2" points="334.897 195.485 325.296 182.882 325.296 195.485 320.993 195.485 320.993 175.661 325.013 175.661 334.301 187.865 334.301 175.661 338.609 175.661 338.609 195.485 334.897 195.485"/><path class="cls-2" d="M352.65942,195.82391a10.00609,10.00609,0,0,1-10.16694-10.1951v-.05673A10.07616,10.07616,0,0,1,352.828,175.32024a10.22065,10.22065,0,0,1,7.81611,3.05894l-2.77487,3.1985a7.3222,7.3222,0,0,0-5.06981-2.23572,5.8717,5.8717,0,0,0-5.74727,6.17379v.05632c0,3.40016,2.35084,6.23052,5.74727,6.23052a7.16166,7.16166,0,0,0,5.21226-2.32185l2.7757,2.803a10.14282,10.14282,0,0,1-8.12792,3.54013"/><polygon class="cls-2" points="364.275 195.485 364.275 175.661 379.228 175.661 379.228 179.539 368.608 179.539 368.608 183.562 377.954 183.562 377.954 187.439 368.608 187.439 368.608 191.603 379.37 191.603 379.37 195.485 364.275 195.485"/><path class="cls-2" d="M390.92791,189.535h-3.31279v5.94977h-4.3617v-19.8233h8.09976c4.729,0,7.58877,2.801,7.58877,6.85209v.0588c0,4.58448-3.56829,6.96265-8.014,6.96265m3.59686-6.9378c0-1.95082-1.35866-2.99973-3.5393-2.99973h-3.37035v6.06074h3.454c2.18147,0,3.45565-1.30441,3.45565-3.00221Z"/><polygon class="cls-2" points="411.152 179.681 411.152 195.485 406.792 195.485 406.792 179.681 400.759 179.681 400.759 175.661 417.185 175.661 417.185 179.681 411.152 179.681"/></g></g></svg>