<svg xmlns="http://www.w3.org/2000/svg" viewBox="0 0 103.54103 40.48478"><defs><style>.cls-1{fill:#0060a9;}.cls-2{fill:#63a70a;}</style></defs><title>Asset 3</title><g id="Layer_2" data-name="Layer 2"><g id="Layer_1-2" data-name="Layer 1"><path class="cls-1" d="M9.88871,3.33884c-10.3653,6.1484-13.0039,18.7011-5.9004,28.0371,7.1054,9.334,21.2695,11.9199,31.63472,5.7676.59768-.3575,1.17388-.7403,1.72458-1.1368-8.1484,3.6621-18.3867,1.3575-23.7187-5.6465-5.752-7.5605-3.6152-17.7187,4.7754-22.6972a19.98236,19.98236,0,0,1,13.2441-2.4531l.2657-3.3418A25.072,25.072,0,0,0,9.88871,3.33884Z"/><path class="cls-2" d="M31.97261,9.454c-7.0253-2.8867-14.34758.5508-16.3515,7.6699-2.0059,7.1153,2.0683,15.2285,9.0976,18.1133.40632.1641.8145.3105,1.2286.4355a12.62365,12.62365,0,0,1-6.1582-14.08c1.625-5.7657,7.5507-8.545,13.2363-6.209a12.5747,12.5747,0,0,1,6.2617,5.7402l1.7813-1.1387A15.792,15.792,0,0,0,31.97261,9.454Z"/><path class="cls-1" d="M27.44341,19.75674a6.65243,6.65243,0,0,1,9.4414,3.7969,8.79419,8.79419,0,0,1-4.545,10.4785,6.64649,6.64649,0,0,1-.6777.2832,7.105,7.105,0,0,0,3.0176-8.1133,5.3879,5.3879,0,0,0-7.6446-3.0761,7.06337,7.06337,0,0,0-3.3378,3.4258l-1.0411-.584A8.906,8.906,0,0,1,27.44341,19.75674Z"/><path class="cls-1" d="M57.667,25.35634q1.88517.0294,3.61328.0313c1.5068,0,2.7695-.0059,3.7812-.0234q-1.9101,4.44135-3.9512,9.8652-2.43015.4365-4.33.6133c-1.2666.1172-2.3272.1777-3.1875.1777a17.22908,17.22908,0,0,1-4.3037-.4961,5.98061,5.98061,0,0,1-2.9356-1.5937,4.5109,4.5109,0,0,1-1.1641-2.8985,9.53861,9.53861,0,0,1,.5801-3.8027,13.539,13.539,0,0,1,1.7031-3.3008,15.75163,15.75163,0,0,1,6.0665-5.1211,14.4281,14.4281,0,0,1,3.6962-1.2051,21.815,21.815,0,0,1,3.7842-.3203,28.01579,28.01579,0,0,1,5.874.6934q-.5097,1.50285-.9472,3.1562a16.0746,16.0746,0,0,0-5.4912-1.0527,12.44283,12.44283,0,0,0-3.3506.4609,10.407,10.407,0,0,0-5.5947,3.8496,11.0852,11.0852,0,0,0-1.6055,2.9786,6.63,6.63,0,0,0-.4141,3.0566,2.76662,2.76662,0,0,0,1.459,2.0898,6.40245,6.40245,0,0,0,3.2666.7461,15.197,15.197,0,0,0,1.7568-.123,17.467,17.467,0,0,0,2.209-.4297l1.8457-4.6562-1.0791-.0137q-.92277-.003-2.3506.039Q57.34326,26.29879,57.667,25.35634Z"/><path class="cls-1" d="M64.958,35.70994q1.91742-4.56165,3.79488-9.3575,1.8735-4.79,2.7578-7.3242l.4786-1.4199,2.2841.0273c.127,0,.8311-.0078,2.1075-.0234q-2.9898,6.9756-7.0176,18.1016l-2.0069-.0274Q66.84671,35.68644,64.958,35.70994Z"/><path class="cls-1" d="M87.83691,25.38174q1.88385.0294,3.6104.0274c1.50972.0039,2.7705-.0059,3.7822-.0215q-1.91022,4.44135-3.9522,9.8672c-1.6172.291-3.0625.4922-4.3271.6113-1.2676.1191-2.32718.1777-3.1885.1777a17.15308,17.15308,0,0,1-4.3066-.4941,6.04577,6.04577,0,0,1-2.9346-1.5937,4.53172,4.53172,0,0,1-1.1631-2.9024,9.52375,9.52375,0,0,1,.5791-3.7969,13.47657,13.47657,0,0,1,1.7061-3.3007A15.64629,15.64629,0,0,1,83.707,18.831a14.32,14.32,0,0,1,3.69628-1.2032,21.62432,21.62432,0,0,1,3.7832-.3222,28.30476,28.30476,0,0,1,5.877.6933c-.3399,1.0039-.6592,2.0567-.9502,3.1582a15.99639,15.99639,0,0,0-5.49028-1.0527,12.37638,12.37638,0,0,0-3.35152.4609,10.39577,10.39577,0,0,0-5.5928,3.8477,11.17031,11.17031,0,0,0-1.6064,2.9785,6.60658,6.60658,0,0,0-.4131,3.0566,2.765,2.765,0,0,0,1.459,2.0918,6.43668,6.43668,0,0,0,3.2646.7461,14.847,14.847,0,0,0,1.7598-.125,17.02082,17.02082,0,0,0,2.206-.4297l1.8457-4.6543-1.08-.0156c-.61428,0-1.3956.0117-2.3477.0391Q87.51076,26.32214,87.83691,25.38174Z"/><path class="cls-1" d="M98.39751,30.81344a6.15227,6.15227,0,0,1,.9648-.0801,1.62258,1.62258,0,0,1,1.127.3184,1,1,0,0,1,.3066.7441,1.02514,1.02514,0,0,1-.7305.9902v.0176a.9755.9755,0,0,1,.5684.7871,6.08866,6.08866,0,0,0,.2998,1.0664h-.5215a4.78194,4.78194,0,0,1-.252-.9297c-.11708-.5371-.32908-.7382-.78708-.7578h-.47652v1.6875h-.499Zm.499,1.7754h.5166c.54,0,.87692-.293.87692-.7422,0-.4981-.36322-.7188-.89352-.7188a2.11709,2.11709,0,0,0-.5.041Z"/><path class="cls-1" d="M99.66411,36.57314a3.877,3.877,0,1,1,3.87692-3.8769A3.8797,3.8797,0,0,1,99.66411,36.57314Zm0-7.3027a3.4258,3.4258,0,1,0,3.4257,3.4258A3.43006,3.43006,0,0,0,99.66411,29.27044Z"/></g></g></svg>