<?xml version="1.0" encoding="UTF-8"?>
<svg width="30px" height="45px" viewBox="0 0 60 90" version="1.1" xmlns="http://www.w3.org/2000/svg" xmlns:xlink="http://www.w3.org/1999/xlink">
    <!-- Generator: Sketch 42 (36781) - http://www.bohemiancoding.com/sketch -->
    <title>pin11</title>
    <desc>Created with Sketch.</desc>
    <defs></defs>
    <g id="Page-1" stroke="none" stroke-width="1" fill="none" fill-rule="evenodd">
        <g id="Desktop-HD-Copy" transform="translate(-1286.000000, -7078.000000)">
            <g id="pin11" transform="translate(1286.000000, 7078.000000)">
                <path d="M4.998895,45.7515488 C1.84033429,41.0855847 0,35.4847571 0,29.4618075 C0,13.1905005 13.4314575,0 30,0 C46.5685425,0 60,13.1905005 60,29.4618075 C60,35.8944901 57.900758,41.8456644 54.3383498,46.6906656 L29.7307273,90 L4.99890054,45.751557 Z" id="Combined-Shape-Copy-18" fill="#c6a043"></path>
                <path d="M16.9924219,36.225 L21.3874219,36.225 L21.3874219,23.58 C21.3874219,23.0899975 21.4024217,22.5750027 21.4324219,22.035 L18.3124219,24.645 C18.1824212,24.7550005 18.0499225,24.8299998 17.9149219,24.87 C17.7799212,24.9100002 17.6474225,24.93 17.5174219,24.93 C17.3174209,24.93 17.1349227,24.8875004 16.9699219,24.8025 C16.804921,24.7174996 16.6824223,24.6200006 16.6024219,24.51 L15.4324219,22.905 L22.0474219,17.28 L25.0924219,17.28 L25.0924219,36.225 L28.9924219,36.225 L28.9924219,39 L16.9924219,39 L16.9924219,36.225 Z M34.3924219,36.225 L38.7874219,36.225 L38.7874219,23.58 C38.7874219,23.0899975 38.8024217,22.5750027 38.8324219,22.035 L35.7124219,24.645 C35.5824212,24.7550005 35.4499225,24.8299998 35.3149219,24.87 C35.1799212,24.9100002 35.0474225,24.93 34.9174219,24.93 C34.7174209,24.93 34.5349227,24.8875004 34.3699219,24.8025 C34.204921,24.7174996 34.0824223,24.6200006 34.0024219,24.51 L32.8324219,22.905 L39.4474219,17.28 L42.4924219,17.28 L42.4924219,36.225 L46.3924219,36.225 L46.3924219,39 L34.3924219,39 L34.3924219,36.225 Z" id="11" fill="#FFFFFF"></path>
            </g>
        </g>
    </g>
</svg>