<?xml version="1.0" encoding="UTF-8"?>
<svg width="30px" height="45px" viewBox="0 0 60 90" version="1.1" xmlns="http://www.w3.org/2000/svg" xmlns:xlink="http://www.w3.org/1999/xlink">
    <!-- Generator: Sketch 42 (36781) - http://www.bohemiancoding.com/sketch -->
    <title>pin13</title>
    <desc>Created with Sketch.</desc>
    <defs></defs>
    <g id="Page-1" stroke="none" stroke-width="1" fill="none" fill-rule="evenodd">
        <g id="Desktop-HD-Copy" transform="translate(-1454.000000, -7078.000000)">
            <g id="pin13" transform="translate(1454.000000, 7078.000000)">
                <path d="M4.998895,45.7515488 C1.84033429,41.0855847 0,35.4847571 0,29.4618075 C0,13.1905005 13.4314575,0 30,0 C46.5685425,0 60,13.1905005 60,29.4618075 C60,35.8944901 57.900758,41.8456644 54.3383498,46.6906656 L29.7307273,90 L4.99890054,45.751557 Z" id="Combined-Shape-Copy-20" fill="#c6a043"></path>
                <path d="M16.9924219,36.225 L21.3874219,36.225 L21.3874219,23.58 C21.3874219,23.0899975 21.4024217,22.5750027 21.4324219,22.035 L18.3124219,24.645 C18.1824212,24.7550005 18.0499225,24.8299998 17.9149219,24.87 C17.7799212,24.9100002 17.6474225,24.93 17.5174219,24.93 C17.3174209,24.93 17.1349227,24.8875004 16.9699219,24.8025 C16.804921,24.7174996 16.6824223,24.6200006 16.6024219,24.51 L15.4324219,22.905 L22.0474219,17.28 L25.0924219,17.28 L25.0924219,36.225 L28.9924219,36.225 L28.9924219,39 L16.9924219,39 L16.9924219,36.225 Z M39.7324219,17.07 C40.7324269,17.07 41.6349178,17.2124986 42.4399219,17.4975 C43.2449259,17.7825014 43.932419,18.1774975 44.5024219,18.6825 C45.0724247,19.1875025 45.5099203,19.7799966 45.8149219,20.46 C46.1199234,21.1400034 46.2724219,21.874996 46.2724219,22.665 C46.2724219,23.3550035 46.1949226,23.9624974 46.0399219,24.4875 C45.8849211,25.0125026 45.6599233,25.469998 45.3649219,25.86 C45.0699204,26.250002 44.709924,26.5799986 44.2849219,26.85 C43.8599197,27.1200014 43.3774246,27.3449991 42.8374219,27.525 C44.1374284,27.935002 45.1074187,28.5599958 45.7474219,29.4 C46.3874251,30.2400042 46.7074219,31.2949936 46.7074219,32.565 C46.7074219,33.6450054 46.5074239,34.5999958 46.1074219,35.43 C45.7074199,36.2600041 45.1674253,36.9574972 44.4874219,37.5225 C43.8074185,38.0875028 43.0199263,38.5149986 42.1249219,38.805 C41.2299174,39.0950015 40.2824269,39.24 39.2824219,39.24 C38.1924164,39.24 37.2424259,39.1150013 36.4324219,38.865 C35.6224178,38.6149988 34.9174249,38.2450025 34.3174219,37.755 C33.7174189,37.2649975 33.207424,36.6650035 32.7874219,35.955 C32.3674198,35.2449965 32.0074234,34.4250047 31.7074219,33.495 L33.3424219,32.82 C33.6224233,32.6999994 33.9074204,32.64 34.1974219,32.64 C34.4574232,32.64 34.6899208,32.6949995 34.8949219,32.805 C35.0999229,32.9150005 35.2574213,33.074999 35.3674219,33.285 C35.5474228,33.6350017 35.7449208,33.9799983 35.9599219,34.32 C36.1749229,34.6600017 36.4324204,34.9624987 36.7324219,35.2275 C37.0324234,35.4925013 37.3849198,35.7074992 37.7899219,35.8725 C38.1949239,36.0375008 38.6774191,36.12 39.2374219,36.12 C39.867425,36.12 40.4174195,36.017501 40.8874219,35.8125 C41.3574242,35.607499 41.7499203,35.3400016 42.0649219,35.01 C42.3799234,34.6799983 42.6149211,34.312502 42.7699219,33.9075 C42.9249226,33.502498 43.0024219,33.0950021 43.0024219,32.685 C43.0024219,32.1649974 42.9474224,31.6925021 42.8374219,31.2675 C42.7274213,30.8424979 42.4974236,30.4800015 42.1474219,30.18 C41.7974201,29.8799985 41.2949251,29.6450008 40.6399219,29.475 C39.9849186,29.3049992 39.1074274,29.22 38.0074219,29.22 L38.0074219,26.58 C38.9174264,26.57 39.6724189,26.4850008 40.2724219,26.325 C40.8724249,26.1649992 41.3499201,25.9425014 41.7049219,25.6575 C42.0599236,25.3724986 42.3074212,25.030002 42.4474219,24.63 C42.5874226,24.229998 42.6574219,23.7900024 42.6574219,23.31 C42.6574219,22.2799948 42.3774247,21.5025026 41.8174219,20.9775 C41.2574191,20.4524974 40.4924267,20.19 39.5224219,20.19 C38.6424175,20.19 37.9124248,20.4224977 37.3324219,20.8875 C36.752419,21.3525023 36.347423,21.9499964 36.1174219,22.68 C35.9974213,23.0600019 35.8324229,23.3324992 35.6224219,23.4975 C35.4124208,23.6625008 35.1374236,23.745 34.7974219,23.745 C34.6374211,23.745 34.4674228,23.7300001 34.2874219,23.7 L32.3374219,23.355 C32.4874226,22.3149948 32.7774197,21.4025039 33.2074219,20.6175 C33.637424,19.8324961 34.1749186,19.1775026 34.8199219,18.6525 C35.4649251,18.1274974 36.2049177,17.7325013 37.0399219,17.4675 C37.874926,17.2024987 38.7724171,17.07 39.7324219,17.07 Z" id="13" fill="#FFFFFF"></path>
            </g>
        </g>
    </g>
</svg>