<?xml version="1.0" encoding="UTF-8"?>
<svg width="30px" height="45px" viewBox="0 0 60 90" version="1.1" xmlns="http://www.w3.org/2000/svg" xmlns:xlink="http://www.w3.org/1999/xlink">
    <!-- Generator: Sketch 42 (36781) - http://www.bohemiancoding.com/sketch -->
    <title>Group 4</title>
    <desc>Created with Sketch.</desc>
    <defs></defs>
    <g id="Page-1" stroke="none" stroke-width="1" fill="none" fill-rule="evenodd">
        <g id="Desktop-HD-Copy" transform="translate(-1202.000000, -7078.000000)">
            <g id="Group-4" transform="translate(1202.000000, 7078.000000)">
                <path d="M4.998895,45.7515488 C1.84033429,41.0855847 0,35.4847571 0,29.4618075 C0,13.1905005 13.4314575,0 30,0 C46.5685425,0 60,13.1905005 60,29.4618075 C60,35.8944901 57.900758,41.8456644 54.3383498,46.6906656 L29.7307273,90 L4.99890054,45.751557 Z" id="Combined-Shape-Copy-17" fill="#c6a043"></path>
                <path d="M16.9924219,36.225 L21.3874219,36.225 L21.3874219,23.58 C21.3874219,23.0899975 21.4024217,22.5750027 21.4324219,22.035 L18.3124219,24.645 C18.1824212,24.7550005 18.0499225,24.8299998 17.9149219,24.87 C17.7799212,24.9100002 17.6474225,24.93 17.5174219,24.93 C17.3174209,24.93 17.1349227,24.8875004 16.9699219,24.8025 C16.804921,24.7174996 16.6824223,24.6200006 16.6024219,24.51 L15.4324219,22.905 L22.0474219,17.28 L25.0924219,17.28 L25.0924219,36.225 L28.9924219,36.225 L28.9924219,39 L16.9924219,39 L16.9924219,36.225 Z M47.0074219,28.155 C47.0074219,30.0450095 46.8049239,31.687493 46.3999219,33.0825 C45.9949198,34.477507 45.4349254,35.6299955 44.7199219,36.54 C44.0049183,37.4500045 43.1599267,38.1274978 42.1849219,38.5725 C41.209917,39.0175022 40.1574275,39.24 39.0274219,39.24 C37.8974162,39.24 36.8499267,39.0175022 35.8849219,38.5725 C34.919917,38.1274978 34.0824254,37.4500045 33.3724219,36.54 C32.6624183,35.6299955 32.1074239,34.477507 31.7074219,33.0825 C31.3074199,31.687493 31.1074219,30.0450095 31.1074219,28.155 C31.1074219,26.2549905 31.3074199,24.6100069 31.7074219,23.22 C32.1074239,21.829993 32.6624183,20.6800046 33.3724219,19.77 C34.0824254,18.8599954 34.919917,18.1825022 35.8849219,17.7375 C36.8499267,17.2924978 37.8974162,17.07 39.0274219,17.07 C40.1574275,17.07 41.209917,17.2924978 42.1849219,17.7375 C43.1599267,18.1825022 44.0049183,18.8599954 44.7199219,19.77 C45.4349254,20.6800046 45.9949198,21.829993 46.3999219,23.22 C46.8049239,24.6100069 47.0074219,26.2549905 47.0074219,28.155 Z M43.1824219,28.155 C43.1824219,26.5849922 43.067423,25.2850051 42.8374219,24.255 C42.6074207,23.2249949 42.2999238,22.4050031 41.9149219,21.795 C41.5299199,21.1849969 41.0874244,20.7575012 40.5874219,20.5125 C40.0874194,20.2674988 39.5674246,20.145 39.0274219,20.145 C38.4974192,20.145 37.9849243,20.2674988 37.4899219,20.5125 C36.9949194,20.7575012 36.5574238,21.1849969 36.1774219,21.795 C35.79742,22.4050031 35.494923,23.2249949 35.2699219,24.255 C35.0449207,25.2850051 34.9324219,26.5849922 34.9324219,28.155 C34.9324219,29.7250079 35.0449207,31.0249949 35.2699219,32.055 C35.494923,33.0850052 35.79742,33.904997 36.1774219,34.515 C36.5574238,35.125003 36.9949194,35.5524988 37.4899219,35.7975 C37.9849243,36.0425012 38.4974192,36.165 39.0274219,36.165 C39.5674246,36.165 40.0874194,36.0425012 40.5874219,35.7975 C41.0874244,35.5524988 41.5299199,35.125003 41.9149219,34.515 C42.2999238,33.904997 42.6074207,33.0850052 42.8374219,32.055 C43.067423,31.0249949 43.1824219,29.7250079 43.1824219,28.155 Z" id="10" fill="#FFFFFF"></path>
            </g>
        </g>
    </g>
</svg>