<?xml version="1.0" encoding="UTF-8"?>
<svg width="30px" height="45px" viewBox="0 0 60 90" version="1.1" xmlns="http://www.w3.org/2000/svg" xmlns:xlink="http://www.w3.org/1999/xlink">
    <!-- Generator: Sketch 42 (36781) - http://www.bohemiancoding.com/sketch -->
    <title>pin1</title>
    <desc>Created with Sketch.</desc>
    <defs></defs>
    <g id="Page-1" stroke="none" stroke-width="1" fill="none" fill-rule="evenodd">
        <g id="Desktop-HD-Copy" transform="translate(-1118.000000, -6948.000000)">
            <g id="pin1" transform="translate(1118.000000, 6948.000000)">
                <path d="M4.998895,45.7515488 C1.84033429,41.0855847 0,35.4847571 0,29.4618075 C0,13.1905005 13.4314575,0 30,0 C46.5685425,0 60,13.1905005 60,29.4618075 C60,35.8944901 57.900758,41.8456644 54.3383498,46.6906656 L29.7307273,90 L4.99890054,45.751557 Z" id="Combined-Shape-Copy-5" fill="#c6a043"></path>
                <path d="M25.6924219,36.225 L30.0874219,36.225 L30.0874219,23.58 C30.0874219,23.0899975 30.1024217,22.5750027 30.1324219,22.035 L27.0124219,24.645 C26.8824212,24.7550005 26.7499226,24.8299998 26.6149219,24.87 C26.4799212,24.9100002 26.3474225,24.93 26.2174219,24.93 C26.0174209,24.93 25.8349227,24.8875004 25.6699219,24.8025 C25.504921,24.7174996 25.3824223,24.6200006 25.3024219,24.51 L24.1324219,22.905 L30.7474219,17.28 L33.7924219,17.28 L33.7924219,36.225 L37.6924219,36.225 L37.6924219,39 L25.6924219,39 L25.6924219,36.225 Z" id="1" fill="#FFFFFF"></path>
            </g>
        </g>
    </g>
</svg>