<?xml version="1.0" encoding="UTF-8"?>
<svg width="30px" height="45px" viewBox="0 0 60 90" version="1.1" xmlns="http://www.w3.org/2000/svg" xmlns:xlink="http://www.w3.org/1999/xlink">
    <!-- Generator: Sketch 42 (36781) - http://www.bohemiancoding.com/sketch -->
    <title>pin15</title>
    <desc>Created with Sketch.</desc>
    <defs></defs>
    <g id="Page-1" stroke="none" stroke-width="1" fill="none" fill-rule="evenodd">
        <g id="Desktop-HD-Copy" transform="translate(-1620.000000, -7078.000000)">
            <g id="pin15" transform="translate(1620.000000, 7078.000000)">
                <path d="M4.998895,45.7515488 C1.84033429,41.0855847 0,35.4847571 0,29.4618075 C0,13.1905005 13.4314575,0 30,0 C46.5685425,0 60,13.1905005 60,29.4618075 C60,35.8944901 57.900758,41.8456644 54.3383498,46.6906656 L29.7307273,90 L4.99890054,45.751557 Z" id="Combined-Shape-Copy-22" fill="#c6a043"></path>
                <path d="M15.9924219,36.225 L20.3874219,36.225 L20.3874219,23.58 C20.3874219,23.0899975 20.4024217,22.5750027 20.4324219,22.035 L17.3124219,24.645 C17.1824212,24.7550005 17.0499225,24.8299998 16.9149219,24.87 C16.7799212,24.9100002 16.6474225,24.93 16.5174219,24.93 C16.3174209,24.93 16.1349227,24.8875004 15.9699219,24.8025 C15.804921,24.7174996 15.6824223,24.6200006 15.6024219,24.51 L14.4324219,22.905 L21.0474219,17.28 L24.0924219,17.28 L24.0924219,36.225 L27.9924219,36.225 L27.9924219,39 L15.9924219,39 L15.9924219,36.225 Z M44.1924219,18.885 C44.1924219,19.4150027 44.0249235,19.8449984 43.6899219,20.175 C43.3549202,20.5050016 42.7974258,20.67 42.0174219,20.67 L36.0474219,20.67 L35.2674219,25.2 C36.2474268,24.999999 37.1424178,24.9 37.9524219,24.9 C39.0924276,24.9 40.0949175,25.0699983 40.9599219,25.41 C41.8249262,25.7500017 42.5524189,26.219997 43.1424219,26.82 C43.7324248,27.420003 44.1774204,28.122496 44.4774219,28.9275 C44.7774234,29.732504 44.9274219,30.5999954 44.9274219,31.53 C44.9274219,32.6800058 44.7249239,33.7299952 44.3199219,34.68 C43.9149198,35.6300047 43.3524255,36.4424966 42.6324219,37.1175 C41.9124183,37.7925034 41.0599268,38.3149982 40.0749219,38.685 C39.0899169,39.0550018 38.0174277,39.24 36.8574219,39.24 C36.1774185,39.24 35.5324249,39.1700007 34.9224219,39.03 C34.3124188,38.8899993 33.7399245,38.7025012 33.2049219,38.4675 C32.6699192,38.2324988 32.1749241,37.9625015 31.7199219,37.6575 C31.2649196,37.3524985 30.8574237,37.0300017 30.4974219,36.69 L31.6374219,35.115 C31.8774231,34.7749983 32.1974199,34.605 32.5974219,34.605 C32.8474231,34.605 33.0999206,34.6849992 33.3549219,34.845 C33.6099231,35.0050008 33.9074202,35.1799991 34.2474219,35.37 C34.5874236,35.560001 34.9824196,35.7349992 35.4324219,35.895 C35.8824241,36.0550008 36.4274187,36.135 37.0674219,36.135 C37.7474253,36.135 38.3474193,36.0250011 38.8674219,35.805 C39.3874245,35.5849989 39.8199201,35.277502 40.1649219,34.8825 C40.5099236,34.487498 40.769921,34.0175027 40.9449219,33.4725 C41.1199227,32.9274973 41.2074219,32.3350032 41.2074219,31.695 C41.2074219,30.5149941 40.8649253,29.5925033 40.1799219,28.9275 C39.4949184,28.2624967 38.4874285,27.93 37.1574219,27.93 C36.1074166,27.93 35.0524272,28.1199981 33.9924219,28.5 L31.6824219,27.84 L33.4824219,17.31 L44.1924219,17.31 L44.1924219,18.885 Z" id="15" fill="#FFFFFF"></path>
            </g>
        </g>
    </g>
</svg>