<?xml version="1.0" encoding="UTF-8"?>
<svg width="30px" height="45px" viewBox="0 0 60 90" version="1.1" xmlns="http://www.w3.org/2000/svg" xmlns:xlink="http://www.w3.org/1999/xlink">
    <!-- Generator: Sketch 42 (36781) - http://www.bohemiancoding.com/sketch -->
    <title>pin12</title>
    <desc>Created with Sketch.</desc>
    <defs></defs>
    <g id="Page-1" stroke="none" stroke-width="1" fill="none" fill-rule="evenodd">
        <g id="Desktop-HD-Copy" transform="translate(-1370.000000, -7078.000000)">
            <g id="pin12" transform="translate(1370.000000, 7078.000000)">
                <path d="M4.998895,45.7515488 C1.84033429,41.0855847 0,35.4847571 0,29.4618075 C0,13.1905005 13.4314575,0 30,0 C46.5685425,0 60,13.1905005 60,29.4618075 C60,35.8944901 57.900758,41.8456644 54.3383498,46.6906656 L29.7307273,90 L4.99890054,45.751557 Z" id="Combined-Shape-Copy-19" fill="#c6a043"></path>
                <path d="M16.9924219,36.225 L21.3874219,36.225 L21.3874219,23.58 C21.3874219,23.0899975 21.4024217,22.5750027 21.4324219,22.035 L18.3124219,24.645 C18.1824212,24.7550005 18.0499225,24.8299998 17.9149219,24.87 C17.7799212,24.9100002 17.6474225,24.93 17.5174219,24.93 C17.3174209,24.93 17.1349227,24.8875004 16.9699219,24.8025 C16.804921,24.7174996 16.6824223,24.6200006 16.6024219,24.51 L15.4324219,22.905 L22.0474219,17.28 L25.0924219,17.28 L25.0924219,36.225 L28.9924219,36.225 L28.9924219,39 L16.9924219,39 L16.9924219,36.225 Z M39.3874219,17.07 C40.3874269,17.07 41.3024177,17.2174985 42.1324219,17.5125 C42.962426,17.8075015 43.6724189,18.2249973 44.2624219,18.765 C44.8524248,19.3050027 45.3124202,19.9549962 45.6424219,20.715 C45.9724235,21.4750038 46.1374219,22.3199953 46.1374219,23.25 C46.1374219,24.050004 46.019923,24.7899966 45.7849219,25.47 C45.5499207,26.1500034 45.2349238,26.7999969 44.8399219,27.42 C44.4449199,28.0400031 43.9824245,28.6399971 43.4524219,29.22 C42.9224192,29.8000029 42.3674248,30.389997 41.7874219,30.99 L36.8974219,35.985 C37.3774243,35.8449993 37.8474196,35.7375004 38.3074219,35.6625 C38.7674242,35.5874996 39.2074198,35.55 39.6274219,35.55 L45.1924219,35.55 C45.5924239,35.55 45.9099207,35.6624989 46.1449219,35.8875 C46.379923,36.1125011 46.4974219,36.4099982 46.4974219,36.78 L46.4974219,39 L31.6174219,39 L31.6174219,37.77 C31.6174219,37.5199988 31.6699213,37.2600013 31.7749219,36.99 C31.8799224,36.7199986 32.0474207,36.4700011 32.2774219,36.24 L38.8624219,29.64 C39.4124246,29.0799972 39.9049197,28.5450026 40.3399219,28.035 C40.774924,27.5249975 41.1399204,27.0200025 41.4349219,26.52 C41.7299233,26.0199975 41.9549211,25.5125026 42.1099219,24.9975 C42.2649226,24.4824974 42.3424219,23.9400029 42.3424219,23.37 C42.3424219,22.8499974 42.2674226,22.392502 42.1174219,21.9975 C41.9674211,21.602498 41.7524233,21.2700013 41.4724219,21 C41.1924205,20.7299987 40.8599238,20.5275007 40.4749219,20.3925 C40.0899199,20.2574993 39.6574243,20.19 39.1774219,20.19 C38.2874174,20.19 37.5549247,20.4149978 36.9799219,20.865 C36.404919,21.3150023 36.002423,21.9199962 35.7724219,22.68 C35.6624213,23.0600019 35.497423,23.3324992 35.2774219,23.4975 C35.0574208,23.6625008 34.7774236,23.745 34.4374219,23.745 C34.2874211,23.745 34.1224228,23.7300001 33.9424219,23.7 L31.9924219,23.355 C32.1424226,22.3149948 32.4324197,21.4025039 32.8624219,20.6175 C33.292424,19.8324961 33.8299186,19.1775026 34.4749219,18.6525 C35.1199251,18.1274974 35.8599177,17.7325013 36.6949219,17.4675 C37.529926,17.2024987 38.4274171,17.07 39.3874219,17.07 Z" id="12" fill="#FFFFFF"></path>
            </g>
        </g>
    </g>
</svg>