<?xml version="1.0" encoding="UTF-8"?>
<svg width="30px" height="45px" viewBox="0 0 60 90" version="1.1" xmlns="http://www.w3.org/2000/svg" xmlns:xlink="http://www.w3.org/1999/xlink">
    <!-- Generator: Sketch 42 (36781) - http://www.bohemiancoding.com/sketch -->
    <title>pin14</title>
    <desc>Created with Sketch.</desc>
    <defs></defs>
    <g id="Page-1" stroke="none" stroke-width="1" fill="none" fill-rule="evenodd">
        <g id="Desktop-HD-Copy" transform="translate(-1537.000000, -7078.000000)">
            <g id="pin14" transform="translate(1537.000000, 7078.000000)">
                <path d="M4.998895,45.7515488 C1.84033429,41.0855847 0,35.4847571 0,29.4618075 C0,13.1905005 13.4314575,0 30,0 C46.5685425,0 60,13.1905005 60,29.4618075 C60,35.8944901 57.900758,41.8456644 54.3383498,46.6906656 L29.7307273,90 L4.99890054,45.751557 Z" id="Combined-Shape-Copy-21" fill="#c6a043"></path>
                <path d="M16.9924219,36.225 L21.3874219,36.225 L21.3874219,23.58 C21.3874219,23.0899975 21.4024217,22.5750027 21.4324219,22.035 L18.3124219,24.645 C18.1824212,24.7550005 18.0499225,24.8299998 17.9149219,24.87 C17.7799212,24.9100002 17.6474225,24.93 17.5174219,24.93 C17.3174209,24.93 17.1349227,24.8875004 16.9699219,24.8025 C16.804921,24.7174996 16.6824223,24.6200006 16.6024219,24.51 L15.4324219,22.905 L22.0474219,17.28 L25.0924219,17.28 L25.0924219,36.225 L28.9924219,36.225 L28.9924219,39 L16.9924219,39 L16.9924219,36.225 Z M44.4874219,30.825 L47.2174219,30.825 L47.2174219,32.97 C47.2174219,33.170001 47.1524225,33.3424993 47.0224219,33.4875 C46.8924212,33.6325007 46.7024231,33.705 46.4524219,33.705 L44.4874219,33.705 L44.4874219,39 L41.2474219,39 L41.2474219,33.705 L32.0974219,33.705 C31.8474206,33.705 31.6274228,33.6275008 31.4374219,33.4725 C31.2474209,33.3174992 31.1274221,33.1250011 31.0774219,32.895 L30.7024219,31.02 L40.9774219,17.295 L44.4874219,17.295 L44.4874219,30.825 Z M41.2474219,23.73 C41.2474219,23.4099984 41.2574218,23.0650019 41.2774219,22.695 C41.297422,22.3249982 41.3324216,21.940002 41.3824219,21.54 L34.6474219,30.825 L41.2474219,30.825 L41.2474219,23.73 Z" id="14" fill="#FFFFFF"></path>
            </g>
        </g>
    </g>
</svg>