<?xml version="1.0" encoding="UTF-8"?>
<svg width="30px" height="45px" viewBox="0 0 60 90" version="1.1" xmlns="http://www.w3.org/2000/svg" xmlns:xlink="http://www.w3.org/1999/xlink">
    <!-- Generator: Sketch 42 (36781) - http://www.bohemiancoding.com/sketch -->
    <title>pin10</title>
    <desc>Created with Sketch.</desc>
    <defs></defs>
    <g id="Page-1" stroke="none" stroke-width="1" fill="none" fill-rule="evenodd">
        <g id="Desktop-HD-Copy" transform="translate(-1202.000000, -6948.000000)">
            <g id="pin10" transform="translate(1202.000000, 6948.000000)">
                <path d="M4.998895,45.7515488 C1.84033429,41.0855847 0,35.4847571 0,29.4618075 C0,13.1905005 13.4314575,0 30,0 C46.5685425,0 60,13.1905005 60,29.4618075 C60,35.8944901 57.900758,41.8456644 54.3383498,46.6906656 L29.7307273,90 L4.99890054,45.751557 Z" id="Combined-Shape-Copy-9" fill="#c6a043"></path>
                <path d="M30.6874219,17.07 C31.6874269,17.07 32.6024177,17.2174985 33.4324219,17.5125 C34.262426,17.8075015 34.9724189,18.2249973 35.5624219,18.765 C36.1524248,19.3050027 36.6124202,19.9549962 36.9424219,20.715 C37.2724235,21.4750038 37.4374219,22.3199953 37.4374219,23.25 C37.4374219,24.050004 37.319923,24.7899966 37.0849219,25.47 C36.8499207,26.1500034 36.5349239,26.7999969 36.1399219,27.42 C35.7449199,28.0400031 35.2824245,28.6399971 34.7524219,29.22 C34.2224192,29.8000029 33.6674248,30.389997 33.0874219,30.99 L28.1974219,35.985 C28.6774243,35.8449993 29.1474196,35.7375004 29.6074219,35.6625 C30.0674242,35.5874996 30.5074198,35.55 30.9274219,35.55 L36.4924219,35.55 C36.8924239,35.55 37.2099207,35.6624989 37.4449219,35.8875 C37.6799231,36.1125011 37.7974219,36.4099982 37.7974219,36.78 L37.7974219,39 L22.9174219,39 L22.9174219,37.77 C22.9174219,37.5199988 22.9699214,37.2600013 23.0749219,36.99 C23.1799224,36.7199986 23.3474207,36.4700011 23.5774219,36.24 L30.1624219,29.64 C30.7124246,29.0799972 31.2049197,28.5450026 31.6399219,28.035 C32.074924,27.5249975 32.4399204,27.0200025 32.7349219,26.52 C33.0299233,26.0199975 33.2549211,25.5125026 33.4099219,24.9975 C33.5649226,24.4824974 33.6424219,23.9400029 33.6424219,23.37 C33.6424219,22.8499974 33.5674226,22.392502 33.4174219,21.9975 C33.2674211,21.602498 33.0524233,21.2700013 32.7724219,21 C32.4924205,20.7299987 32.1599238,20.5275007 31.7749219,20.3925 C31.3899199,20.2574993 30.9574243,20.19 30.4774219,20.19 C29.5874174,20.19 28.8549248,20.4149978 28.2799219,20.865 C27.704919,21.3150023 27.302423,21.9199962 27.0724219,22.68 C26.9624213,23.0600019 26.797423,23.3324992 26.5774219,23.4975 C26.3574208,23.6625008 26.0774236,23.745 25.7374219,23.745 C25.5874211,23.745 25.4224228,23.7300001 25.2424219,23.7 L23.2924219,23.355 C23.4424226,22.3149948 23.7324197,21.4025039 24.1624219,20.6175 C24.592424,19.8324961 25.1299187,19.1775026 25.7749219,18.6525 C26.4199251,18.1274974 27.1599177,17.7325013 27.9949219,17.4675 C28.8299261,17.2024987 29.7274171,17.07 30.6874219,17.07 Z" id="2" fill="#FFFFFF"></path>
            </g>
        </g>
    </g>
</svg>