<?xml version="1.0" encoding="UTF-8"?>
<svg width="30px" height="45px" viewBox="0 0 60 90" version="1.1" xmlns="http://www.w3.org/2000/svg" xmlns:xlink="http://www.w3.org/1999/xlink">
    <!-- Generator: Sketch 42 (36781) - http://www.bohemiancoding.com/sketch -->
    <title>pin3</title>
    <desc>Created with Sketch.</desc>
    <defs></defs>
    <g id="Page-1" stroke="none" stroke-width="1" fill="none" fill-rule="evenodd">
        <g id="Desktop-HD-Copy" transform="translate(-1286.000000, -6948.000000)">
            <g id="pin3" transform="translate(1286.000000, 6948.000000)">
                <path d="M4.998895,45.7515488 C1.84033429,41.0855847 0,35.4847571 0,29.4618075 C0,13.1905005 13.4314575,0 30,0 C46.5685425,0 60,13.1905005 60,29.4618075 C60,35.8944901 57.900758,41.8456644 54.3383498,46.6906656 L29.7307273,90 L4.99890054,45.751557 Z" id="Combined-Shape-Copy-10" fill="#c6a043"></path>
                <path d="M31.0324219,17.07 C32.0324269,17.07 32.9349178,17.2124986 33.7399219,17.4975 C34.5449259,17.7825014 35.232419,18.1774975 35.8024219,18.6825 C36.3724247,19.1875025 36.8099204,19.7799966 37.1149219,20.46 C37.4199234,21.1400034 37.5724219,21.874996 37.5724219,22.665 C37.5724219,23.3550035 37.4949227,23.9624974 37.3399219,24.4875 C37.1849211,25.0125026 36.9599234,25.469998 36.6649219,25.86 C36.3699204,26.250002 36.009924,26.5799986 35.5849219,26.85 C35.1599197,27.1200014 34.6774246,27.3449991 34.1374219,27.525 C35.4374284,27.935002 36.4074187,28.5599958 37.0474219,29.4 C37.6874251,30.2400042 38.0074219,31.2949936 38.0074219,32.565 C38.0074219,33.6450054 37.8074239,34.5999958 37.4074219,35.43 C37.0074199,36.2600041 36.4674253,36.9574972 35.7874219,37.5225 C35.1074185,38.0875028 34.3199264,38.5149986 33.4249219,38.805 C32.5299174,39.0950015 31.5824269,39.24 30.5824219,39.24 C29.4924164,39.24 28.5424259,39.1150013 27.7324219,38.865 C26.9224178,38.6149988 26.2174249,38.2450025 25.6174219,37.755 C25.0174189,37.2649975 24.507424,36.6650035 24.0874219,35.955 C23.6674198,35.2449965 23.3074234,34.4250047 23.0074219,33.495 L24.6424219,32.82 C24.9224233,32.6999994 25.2074204,32.64 25.4974219,32.64 C25.7574232,32.64 25.9899209,32.6949995 26.1949219,32.805 C26.3999229,32.9150005 26.5574213,33.074999 26.6674219,33.285 C26.8474228,33.6350017 27.0449208,33.9799983 27.2599219,34.32 C27.474923,34.6600017 27.7324204,34.9624987 28.0324219,35.2275 C28.3324234,35.4925013 28.6849198,35.7074992 29.0899219,35.8725 C29.4949239,36.0375008 29.9774191,36.12 30.5374219,36.12 C31.167425,36.12 31.7174195,36.017501 32.1874219,35.8125 C32.6574242,35.607499 33.0499203,35.3400016 33.3649219,35.01 C33.6799234,34.6799983 33.9149211,34.312502 34.0699219,33.9075 C34.2249227,33.502498 34.3024219,33.0950021 34.3024219,32.685 C34.3024219,32.1649974 34.2474224,31.6925021 34.1374219,31.2675 C34.0274213,30.8424979 33.7974236,30.4800015 33.4474219,30.18 C33.0974201,29.8799985 32.5949252,29.6450008 31.9399219,29.475 C31.2849186,29.3049992 30.4074274,29.22 29.3074219,29.22 L29.3074219,26.58 C30.2174264,26.57 30.9724189,26.4850008 31.5724219,26.325 C32.1724249,26.1649992 32.6499201,25.9425014 33.0049219,25.6575 C33.3599236,25.3724986 33.6074212,25.030002 33.7474219,24.63 C33.8874226,24.229998 33.9574219,23.7900024 33.9574219,23.31 C33.9574219,22.2799948 33.6774247,21.5025026 33.1174219,20.9775 C32.5574191,20.4524974 31.7924267,20.19 30.8224219,20.19 C29.9424175,20.19 29.2124248,20.4224977 28.6324219,20.8875 C28.052419,21.3525023 27.647423,21.9499964 27.4174219,22.68 C27.2974213,23.0600019 27.1324229,23.3324992 26.9224219,23.4975 C26.7124208,23.6625008 26.4374236,23.745 26.0974219,23.745 C25.9374211,23.745 25.7674228,23.7300001 25.5874219,23.7 L23.6374219,23.355 C23.7874226,22.3149948 24.0774197,21.4025039 24.5074219,20.6175 C24.937424,19.8324961 25.4749187,19.1775026 26.1199219,18.6525 C26.7649251,18.1274974 27.5049177,17.7325013 28.3399219,17.4675 C29.1749261,17.2024987 30.0724171,17.07 31.0324219,17.07 Z" id="3" fill="#FFFFFF"></path>
            </g>
        </g>
    </g>
</svg>