<?xml version="1.0" encoding="UTF-8"?>
<svg width="30px" height="45px" viewBox="0 0 60 90" version="1.1" xmlns="http://www.w3.org/2000/svg" xmlns:xlink="http://www.w3.org/1999/xlink">
    <!-- Generator: Sketch 42 (36781) - http://www.bohemiancoding.com/sketch -->
    <title>pin4</title>
    <desc>Created with Sketch.</desc>
    <defs></defs>
    <g id="Page-1" stroke="none" stroke-width="1" fill="none" fill-rule="evenodd">
        <g id="Desktop-HD-Copy" transform="translate(-1370.000000, -6948.000000)">
            <g id="pin4" transform="translate(1370.000000, 6948.000000)">
                <path d="M4.998895,45.7515488 C1.84033429,41.0855847 0,35.4847571 0,29.4618075 C0,13.1905005 13.4314575,0 30,0 C46.5685425,0 60,13.1905005 60,29.4618075 C60,35.8944901 57.900758,41.8456644 54.3383498,46.6906656 L29.7307273,90 L4.99890054,45.751557 Z" id="Combined-Shape-Copy-11" fill="#c6a043"></path>
                <path d="M35.7874219,30.825 L38.5174219,30.825 L38.5174219,32.97 C38.5174219,33.170001 38.4524225,33.3424993 38.3224219,33.4875 C38.1924212,33.6325007 38.0024231,33.705 37.7524219,33.705 L35.7874219,33.705 L35.7874219,39 L32.5474219,39 L32.5474219,33.705 L23.3974219,33.705 C23.1474206,33.705 22.9274228,33.6275008 22.7374219,33.4725 C22.5474209,33.3174992 22.4274221,33.1250011 22.3774219,32.895 L22.0024219,31.02 L32.2774219,17.295 L35.7874219,17.295 L35.7874219,30.825 Z M32.5474219,23.73 C32.5474219,23.4099984 32.5574218,23.0650019 32.5774219,22.695 C32.597422,22.3249982 32.6324216,21.940002 32.6824219,21.54 L25.9474219,30.825 L32.5474219,30.825 L32.5474219,23.73 Z" id="4" fill="#FFFFFF"></path>
            </g>
        </g>
    </g>
</svg>