<?xml version="1.0" encoding="UTF-8"?>
<svg width="30px" height="45px" viewBox="0 0 60 90" version="1.1" xmlns="http://www.w3.org/2000/svg" xmlns:xlink="http://www.w3.org/1999/xlink">
    <!-- Generator: Sketch 42 (36781) - http://www.bohemiancoding.com/sketch -->
    <title>pin5</title>
    <desc>Created with Sketch.</desc>
    <defs></defs>
    <g id="Page-1" stroke="none" stroke-width="1" fill="none" fill-rule="evenodd">
        <g id="Desktop-HD-Copy" transform="translate(-1454.000000, -6948.000000)">
            <g id="pin5" transform="translate(1454.000000, 6948.000000)">
                <path d="M4.998895,45.7515488 C1.84033429,41.0855847 0,35.4847571 0,29.4618075 C0,13.1905005 13.4314575,0 30,0 C46.5685425,0 60,13.1905005 60,29.4618075 C60,35.8944901 57.900758,41.8456644 54.3383498,46.6906656 L29.7307273,90 L4.99890054,45.751557 Z" id="Combined-Shape-Copy-12" fill="#c6a043"></path>
                <path d="M36.4924219,18.885 C36.4924219,19.4150027 36.3249235,19.8449984 35.9899219,20.175 C35.6549202,20.5050016 35.0974258,20.67 34.3174219,20.67 L28.3474219,20.67 L27.5674219,25.2 C28.5474268,24.999999 29.4424178,24.9 30.2524219,24.9 C31.3924276,24.9 32.3949175,25.0699983 33.2599219,25.41 C34.1249262,25.7500017 34.8524189,26.219997 35.4424219,26.82 C36.0324248,27.420003 36.4774204,28.122496 36.7774219,28.9275 C37.0774234,29.732504 37.2274219,30.5999954 37.2274219,31.53 C37.2274219,32.6800058 37.0249239,33.7299952 36.6199219,34.68 C36.2149199,35.6300047 35.6524255,36.4424966 34.9324219,37.1175 C34.2124183,37.7925034 33.3599268,38.3149982 32.3749219,38.685 C31.389917,39.0550018 30.3174277,39.24 29.1574219,39.24 C28.4774185,39.24 27.8324249,39.1700007 27.2224219,39.03 C26.6124188,38.8899993 26.0399246,38.7025012 25.5049219,38.4675 C24.9699192,38.2324988 24.4749242,37.9625015 24.0199219,37.6575 C23.5649196,37.3524985 23.1574237,37.0300017 22.7974219,36.69 L23.9374219,35.115 C24.1774231,34.7749983 24.4974199,34.605 24.8974219,34.605 C25.1474231,34.605 25.3999206,34.6849992 25.6549219,34.845 C25.9099231,35.0050008 26.2074202,35.1799991 26.5474219,35.37 C26.8874236,35.560001 27.2824196,35.7349992 27.7324219,35.895 C28.1824241,36.0550008 28.7274187,36.135 29.3674219,36.135 C30.0474253,36.135 30.6474193,36.0250011 31.1674219,35.805 C31.6874245,35.5849989 32.1199202,35.277502 32.4649219,34.8825 C32.8099236,34.487498 33.069921,34.0175027 33.2449219,33.4725 C33.4199228,32.9274973 33.5074219,32.3350032 33.5074219,31.695 C33.5074219,30.5149941 33.1649253,29.5925033 32.4799219,28.9275 C31.7949185,28.2624967 30.7874285,27.93 29.4574219,27.93 C28.4074166,27.93 27.3524272,28.1199981 26.2924219,28.5 L23.9824219,27.84 L25.7824219,17.31 L36.4924219,17.31 L36.4924219,18.885 Z" id="5" fill="#FFFFFF"></path>
            </g>
        </g>
    </g>
</svg>