<?xml version="1.0" encoding="UTF-8"?>
<svg width="30px" height="45px" viewBox="0 0 60 90" version="1.1" xmlns="http://www.w3.org/2000/svg" xmlns:xlink="http://www.w3.org/1999/xlink">
    <!-- Generator: Sketch 42 (36781) - http://www.bohemiancoding.com/sketch -->
    <title>pin6</title>
    <desc>Created with Sketch.</desc>
    <defs></defs>
    <g id="Page-1" stroke="none" stroke-width="1" fill="none" fill-rule="evenodd">
        <g id="Desktop-HD-Copy" transform="translate(-1537.000000, -6948.000000)">
            <g id="pin6" transform="translate(1537.000000, 6948.000000)">
                <path d="M4.998895,45.7515488 C1.84033429,41.0855847 0,35.4847571 0,29.4618075 C0,13.1905005 13.4314575,0 30,0 C46.5685425,0 60,13.1905005 60,29.4618075 C60,35.8944901 57.900758,41.8456644 54.3383498,46.6906656 L29.7307273,90 L4.99890054,45.751557 Z" id="Combined-Shape-Copy-13" fill="#c6a043"></path>
                <path d="M31.7074219,25.455 C32.527426,25.455 33.324918,25.5899986 34.0999219,25.86 C34.8749258,26.1300014 35.5574189,26.5374973 36.1474219,27.0825 C36.7374248,27.6275027 37.2124201,28.304996 37.5724219,29.115 C37.9324237,29.9250041 38.1124219,30.8699946 38.1124219,31.95 C38.1124219,32.9600051 37.9274237,33.9074956 37.5574219,34.7925 C37.18742,35.6775044 36.6674252,36.4499967 35.9974219,37.11 C35.3274185,37.7700033 34.5199266,38.2899981 33.5749219,38.67 C32.6299171,39.0500019 31.5874276,39.24 30.4474219,39.24 C29.2874161,39.24 28.2474265,39.0550018 27.3274219,38.685 C26.4074173,38.3149982 25.6224251,37.7975033 24.9724219,37.1325 C24.3224186,36.4674967 23.8249236,35.6675047 23.4799219,34.7325 C23.1349201,33.7974953 22.9624219,32.7600057 22.9624219,31.62 C22.9624219,30.5999949 23.1699198,29.5525054 23.5849219,28.4775 C23.999924,27.4024946 24.6424175,26.2850058 25.5124219,25.125 L30.6874219,18.18 C30.8674228,17.9399988 31.1299202,17.7350008 31.4749219,17.565 C31.8199236,17.3949992 32.2174196,17.31 32.6674219,17.31 L35.9674219,17.31 L29.5324219,25.185 C29.3924212,25.3550008 29.2599225,25.5149993 29.1349219,25.665 C29.0099212,25.8150007 28.8874225,25.9699992 28.7674219,26.13 C29.187424,25.919999 29.6399194,25.7550006 30.1249219,25.635 C30.6099243,25.5149994 31.137419,25.455 31.7074219,25.455 Z M26.5174219,32.19 C26.5174219,32.790003 26.599921,33.3374975 26.7649219,33.8325 C26.9299227,34.3275025 27.1749203,34.7499983 27.4999219,35.1 C27.8249235,35.4500018 28.2274195,35.722499 28.7074219,35.9175 C29.1874243,36.112501 29.7424187,36.21 30.3724219,36.21 C30.9624248,36.21 31.5049194,36.110001 31.9999219,35.91 C32.4949244,35.709999 32.9199201,35.4300018 33.2749219,35.07 C33.6299236,34.7099982 33.9074209,34.2875024 34.1074219,33.8025 C34.3074229,33.3174976 34.4074219,32.7900028 34.4074219,32.22 C34.4074219,31.5999969 34.3124228,31.0425025 34.1224219,30.5475 C33.9324209,30.0524975 33.6624236,29.6325017 33.3124219,29.2875 C32.9624201,28.9424983 32.5424243,28.6800009 32.0524219,28.5 C31.5624194,28.3199991 31.0224248,28.23 30.4324219,28.23 C29.8424189,28.23 29.3074243,28.329999 28.8274219,28.53 C28.3474195,28.730001 27.9349236,29.0074982 27.5899219,29.3625 C27.2449202,29.7175018 26.9799228,30.1374976 26.7949219,30.6225 C26.609921,31.1075024 26.5174219,31.6299972 26.5174219,32.19 Z" id="6" fill="#FFFFFF"></path>
            </g>
        </g>
    </g>
</svg>