<?xml version="1.0" encoding="UTF-8"?>
<svg width="30px" height="45px" viewBox="0 0 60 90" version="1.1" xmlns="http://www.w3.org/2000/svg" xmlns:xlink="http://www.w3.org/1999/xlink">
    <!-- Generator: Sketch 42 (36781) - http://www.bohemiancoding.com/sketch -->
    <title>pin7</title>
    <desc>Created with Sketch.</desc>
    <defs></defs>
    <g id="Page-1" stroke="none" stroke-width="1" fill="none" fill-rule="evenodd">
        <g id="Desktop-HD-Copy" transform="translate(-1620.000000, -6948.000000)">
            <g id="pin7" transform="translate(1620.000000, 6948.000000)">
                <path d="M4.998895,45.7515488 C1.84033429,41.0855847 0,35.4847571 0,29.4618075 C0,13.1905005 13.4314575,0 30,0 C46.5685425,0 60,13.1905005 60,29.4618075 C60,35.8944901 57.900758,41.8456644 54.3383498,46.6906656 L29.7307273,90 L4.99890054,45.751557 Z" id="Combined-Shape-Copy-14" fill="#c6a043"></path>
                <path d="M37.0974219,17.31 L37.0974219,18.915 C37.0974219,19.3950024 37.0449224,19.7824985 36.9399219,20.0775 C36.8349213,20.3725015 36.7324224,20.619999 36.6324219,20.82 L28.4274219,37.74 C28.257421,38.0900017 28.0174234,38.3874988 27.7074219,38.6325 C27.3974203,38.8775012 26.9774245,39 26.4474219,39 L23.7624219,39 L32.1624219,22.425 C32.5124236,21.7449966 32.9024197,21.1600025 33.3324219,20.67 L22.9524219,20.67 C22.7224207,20.67 22.5224227,20.5850009 22.3524219,20.415 C22.182421,20.2449991 22.0974219,20.0450011 22.0974219,19.815 L22.0974219,17.31 L37.0974219,17.31 Z" id="7" fill="#FFFFFF"></path>
            </g>
        </g>
    </g>
</svg>