<?xml version="1.0" encoding="UTF-8"?>
<svg width="30px" height="45px" viewBox="0 0 60 90" version="1.1" xmlns="http://www.w3.org/2000/svg" xmlns:xlink="http://www.w3.org/1999/xlink">
    <!-- Generator: Sketch 42 (36781) - http://www.bohemiancoding.com/sketch -->
    <title>pin8</title>
    <desc>Created with Sketch.</desc>
    <defs></defs>
    <g id="Page-1" stroke="none" stroke-width="1" fill="none" fill-rule="evenodd">
        <g id="Desktop-HD-Copy" transform="translate(-1702.000000, -6948.000000)">
            <g id="pin8" transform="translate(1702.000000, 6948.000000)">
                <path d="M4.998895,45.7515488 C1.84033429,41.0855847 0,35.4847571 0,29.4618075 C0,13.1905005 13.4314575,0 30,0 C46.5685425,0 60,13.1905005 60,29.4618075 C60,35.8944901 57.900758,41.8456644 54.3383498,46.6906656 L29.7307273,90 L4.99890054,45.751557 Z" id="Combined-Shape-Copy-15" fill="#c6a043"></path>
                <path d="M30.3574219,39.24 C29.2374163,39.24 28.2149265,39.0900015 27.2899219,38.79 C26.3649173,38.4899985 25.5724252,38.0650027 24.9124219,37.515 C24.2524186,36.9649973 23.7399237,36.3000039 23.3749219,35.52 C23.0099201,34.7399961 22.8274219,33.8700048 22.8274219,32.91 C22.8274219,31.6299936 23.1424187,30.5475044 23.7724219,29.6625 C24.402425,28.7774956 25.3824152,28.1200021 26.7124219,27.69 C25.6524166,27.2499978 24.8599245,26.625004 24.3349219,25.815 C23.8099193,25.004996 23.5474219,24.0300057 23.5474219,22.89 C23.5474219,22.0699959 23.7149202,21.3050036 24.0499219,20.595 C24.3849236,19.8849964 24.8524189,19.2675026 25.4524219,18.7425 C26.0524249,18.2174974 26.7699177,17.8075015 27.6049219,17.5125 C28.4399261,17.2174985 29.3574169,17.07 30.3574219,17.07 C31.3574269,17.07 32.2749177,17.2174985 33.1099219,17.5125 C33.9449261,17.8075015 34.6624189,18.2174974 35.2624219,18.7425 C35.8624249,19.2675026 36.3299202,19.8849964 36.6649219,20.595 C36.9999236,21.3050036 37.1674219,22.0699959 37.1674219,22.89 C37.1674219,24.0300057 36.9024245,25.004996 36.3724219,25.815 C35.8424192,26.625004 35.0524271,27.2499978 34.0024219,27.69 C35.3324285,28.1200021 36.3124187,28.7774956 36.9424219,29.6625 C37.572425,30.5475044 37.8874219,31.6299936 37.8874219,32.91 C37.8874219,33.8700048 37.7049237,34.7399961 37.3399219,35.52 C36.9749201,36.3000039 36.4624252,36.9649973 35.8024219,37.515 C35.1424186,38.0650027 34.3499265,38.4899985 33.4249219,38.79 C32.4999173,39.0900015 31.4774275,39.24 30.3574219,39.24 Z M30.3574219,36.345 C30.9674249,36.345 31.5024196,36.2575009 31.9624219,36.0825 C32.4224242,35.9074991 32.8099203,35.6650015 33.1249219,35.355 C33.4399235,35.0449985 33.6774211,34.6750022 33.8374219,34.245 C33.9974227,33.8149978 34.0774219,33.3500025 34.0774219,32.85 C34.0774219,31.6599941 33.7474252,30.760003 33.0874219,30.15 C32.4274186,29.539997 31.5174277,29.235 30.3574219,29.235 C29.1974161,29.235 28.2874252,29.539997 27.6274219,30.15 C26.9674186,30.760003 26.6374219,31.6599941 26.6374219,32.85 C26.6374219,33.3500025 26.7174211,33.8149978 26.8774219,34.245 C27.0374227,34.6750022 27.2749203,35.0449985 27.5899219,35.355 C27.9049235,35.6650015 28.2924196,35.9074991 28.7524219,36.0825 C29.2124242,36.2575009 29.7474188,36.345 30.3574219,36.345 Z M30.3574219,26.325 C30.9574249,26.325 31.4624198,26.230001 31.8724219,26.04 C32.2824239,25.8499991 32.6124206,25.5975016 32.8624219,25.2825 C33.1124231,24.9674984 33.2899214,24.607502 33.3949219,24.2025 C33.4999224,23.797498 33.5524219,23.3800022 33.5524219,22.95 C33.5524219,22.5399979 33.4874225,22.1500019 33.3574219,21.78 C33.2274212,21.4099982 33.0324232,21.0825014 32.7724219,20.7975 C32.5124206,20.5124986 32.1824239,20.2850008 31.7824219,20.115 C31.3824199,19.9449991 30.9074246,19.86 30.3574219,19.86 C29.8074191,19.86 29.3324239,19.9449991 28.9324219,20.115 C28.5324199,20.2850008 28.1999232,20.5124986 27.9349219,20.7975 C27.6699206,21.0825014 27.4749225,21.4099982 27.3499219,21.78 C27.2249213,22.1500019 27.1624219,22.5399979 27.1624219,22.95 C27.1624219,23.3800022 27.2149214,23.797498 27.3199219,24.2025 C27.4249224,24.607502 27.6024206,24.9674984 27.8524219,25.2825 C28.1024231,25.5975016 28.4324198,25.8499991 28.8424219,26.04 C29.2524239,26.230001 29.7574189,26.325 30.3574219,26.325 Z" id="8" fill="#FFFFFF"></path>
            </g>
        </g>
    </g>
</svg>