<?xml version="1.0" encoding="UTF-8"?>
<svg width="30px" height="45px" viewBox="0 0 60 90" version="1.1" xmlns="http://www.w3.org/2000/svg" xmlns:xlink="http://www.w3.org/1999/xlink">
    <!-- Generator: Sketch 42 (36781) - http://www.bohemiancoding.com/sketch -->
    <title>pin9</title>
    <desc>Created with Sketch.</desc>
    <defs></defs>
    <g id="Page-1" stroke="none" stroke-width="1" fill="none" fill-rule="evenodd">
        <g id="Desktop-HD-Copy" transform="translate(-1118.000000, -7078.000000)">
            <g id="pin9" transform="translate(1118.000000, 7078.000000)">
                <path d="M4.998895,45.7515488 C1.84033429,41.0855847 0,35.4847571 0,29.4618075 C0,13.1905005 13.4314575,0 30,0 C46.5685425,0 60,13.1905005 60,29.4618075 C60,35.8944901 57.900758,41.8456644 54.3383498,46.6906656 L29.7307273,90 L4.99890054,45.751557 Z" id="Combined-Shape-Copy-16" fill="#c6a043"></path>
                <path d="M29.6074219,30.345 C28.8574181,30.345 28.1224255,30.2150013 27.4024219,29.955 C26.6824183,29.6949987 26.0399247,29.3025026 25.4749219,28.7775 C24.9099191,28.2524974 24.4574236,27.6025039 24.1174219,26.8275 C23.7774202,26.0524961 23.6074219,25.1450052 23.6074219,24.105 C23.6074219,23.1349951 23.7874201,22.2250042 24.1474219,21.375 C24.5074237,20.5249958 25.0124186,19.7800032 25.6624219,19.14 C26.3124251,18.4999968 27.0924173,17.9950019 28.0024219,17.625 C28.9124264,17.2549981 29.9174164,17.07 31.0174219,17.07 C32.1274274,17.07 33.1249175,17.2449983 34.0099219,17.595 C34.8949263,17.9450018 35.6499188,18.4349969 36.2749219,19.065 C36.899925,19.6950032 37.3799202,20.4499956 37.7149219,21.33 C38.0499235,22.2100044 38.2174219,23.1749948 38.2174219,24.225 C38.2174219,24.8950033 38.1599225,25.529997 38.0449219,26.13 C37.9299213,26.730003 37.764923,27.3074972 37.5499219,27.8625 C37.3349208,28.4175028 37.0774234,28.9574974 36.7774219,29.4825 C36.4774204,30.0075026 36.1424237,30.5349973 35.7724219,31.065 L30.8074219,38.145 C30.637421,38.3850012 30.3849235,38.5874992 30.0499219,38.7525 C29.7149202,38.9175008 29.332424,39 28.9024219,39 L25.4974219,39 L32.2324219,30.585 C32.4024227,30.374999 32.5624211,30.170001 32.7124219,29.97 C32.8624226,29.769999 33.0074212,29.570001 33.1474219,29.37 C32.6474194,29.6900016 32.0974249,29.9324992 31.4974219,30.0975 C30.8974189,30.2625008 30.2674252,30.345 29.6074219,30.345 Z M34.6624219,23.85 C34.6624219,23.259997 34.5724228,22.7325023 34.3924219,22.2675 C34.212421,21.8024977 33.9574235,21.4100016 33.6274219,21.09 C33.2974202,20.7699984 32.9049241,20.5250008 32.4499219,20.355 C31.9949196,20.1849992 31.4974246,20.1 30.9574219,20.1 C30.3974191,20.1 29.8924241,20.1924991 29.4424219,20.3775 C28.9924196,20.5625009 28.6099234,20.8199983 28.2949219,21.15 C27.9799203,21.4800017 27.7374227,21.8724977 27.5674219,22.3275 C27.397421,22.7825023 27.3124219,23.2799973 27.3124219,23.82 C27.3124219,25.0300061 27.6249188,25.9524968 28.2499219,26.5875 C28.874925,27.2225032 29.7624161,27.54 30.9124219,27.54 C31.5124249,27.54 32.0449196,27.4450009 32.5099219,27.255 C32.9749242,27.064999 33.3674203,26.8050017 33.6874219,26.475 C34.0074235,26.1449983 34.2499211,25.7550022 34.4149219,25.305 C34.5799227,24.8549977 34.6624219,24.3700026 34.6624219,23.85 Z" id="9" fill="#FFFFFF"></path>
            </g>
        </g>
    </g>
</svg>