<?xml version="1.0" encoding="UTF-8"?>
<svg width="27px" height="28px" viewBox="0 0 27 28" version="1.1" xmlns="http://www.w3.org/2000/svg" xmlns:xlink="http://www.w3.org/1999/xlink">
    <!-- Generator: Sketch 51.1 (57501) - http://www.bohemiancoding.com/sketch -->
    <title>Group 6</title>
    <desc>Created with Sketch.</desc>
    <defs>
        <polygon id="path-1" points="0 0.0697507582 26.9811 0.0697507582 26.9811 27.1999523 0 27.1999523"></polygon>
    </defs>
    <g id="Page-1" stroke="none" stroke-width="1" fill="none" fill-rule="evenodd">
        <g id="home" transform="translate(-323.000000, -9163.000000)">
            <g id="Group-6" transform="translate(323.000000, 9163.000000)">
                <g id="Group-3">
                    <mask id="mask-2" fill="white">
                        <use xlink:href="#path-1"></use>
                    </mask>
                    <g id="Clip-2"></g>
                    <path d="M3.23056588,23.9908295 C3.38335412,23.9704692 3.47960118,23.967447 3.57076588,23.9440646 C4.64584235,23.6664973 5.73013059,23.4180388 6.79027765,23.0914798 C7.26214235,22.946254 7.61584235,23.0210143 8.02608353,23.255157 C10.3414129,24.5771406 12.8333541,25.018226 15.4518776,24.5613932 C21.5213188,23.5021839 25.5311365,17.800364 24.5494482,11.6771827 C23.5645835,5.53427743 17.5243659,1.32432187 11.4488894,2.54657216 C4.03802471,4.03732304 0.158918824,12.0594143 3.69036,18.7412295 C4.19780118,19.7013418 4.27562471,20.4828248 3.93240706,21.4443687 C3.64271294,22.2557558 3.46880118,23.1084996 3.23056588,23.9908295 M-6.35294118e-05,27.1999523 C0.438130588,25.5961067 0.859012941,24.0577956 1.27878353,22.5191663 C1.46635412,21.8313722 1.82211882,21.1346704 1.78971882,20.4570564 C1.75858941,19.8096646 1.31864824,19.1834283 1.06564235,18.5449441 C-2.05428706,10.6725324 2.72344235,1.92033591 11.0176835,0.31235462 C18.2571776,-1.09122901 25.3858129,3.74384936 26.7443894,10.9793675 C28.1687188,18.5641909 23.0121953,25.8067078 15.4016894,26.8695757 C12.6470541,27.2543523 10.0028012,26.8228108 7.51371882,25.5561815 C7.21036588,25.4018891 6.95164235,25.3958447 6.63161294,25.4823757 C4.54197176,26.0476903 2.44677176,26.5923265 0.352842353,27.1420529 C0.260724706,27.1662306 0.164318824,27.1735476 -6.35294118e-05,27.1999523" id="Fill-1" fill="#bfac73" mask="url(#mask-2)"></path>
                </g>
                <path d="M9.32566432,7.02050558 C10.1083622,6.91632334 10.0876054,7.20745392 10.3728977,7.9322209 C10.6612202,8.66471701 10.9354524,9.40429815 11.2481679,10.1248785 C11.4231613,10.5277594 11.3992228,10.8810451 11.1563532,11.2201607 C10.9422703,11.5191814 10.7186423,11.8117612 10.4813785,12.0900099 C10.3004762,12.3020779 10.2622958,12.5117305 10.3988058,12.7572915 C11.4595236,14.6662256 12.9340137,16.0656812 14.9031822,16.8329584 C15.052419,16.8910879 15.3368022,16.7832021 15.4592219,16.6498747 C15.7998152,16.2787154 16.1064703,15.8673002 16.3907021,15.4446134 C16.6009972,15.1320667 16.8406852,15.0325542 17.1587035,15.1921285 C18.0186712,15.6231885 18.8786389,16.0552147 19.7258799,16.5133267 C19.8540569,16.5825668 19.9875367,16.788838 19.9948092,16.9385899 C20.0419286,17.9048922 19.7734538,18.7180611 18.976211,19.2974238 C17.9294322,20.05826 16.8173527,20.1568065 15.6269429,19.805131 C12.5132719,18.8852035 10.2179035,16.8089659 8.38721471,14.0620652 C7.76845007,13.1336035 7.22786431,12.1700386 7.05893126,11.0251612 C6.85075726,9.61330672 7.18059336,8.30982111 8.26464356,7.48199906 C8.65629552,7.18297834 8.86628763,7.09361027 9.32566432,7.02050558" id="Fill-4" fill="#bfac73"></path>
            </g>
        </g>
    </g>
</svg>