<?xml version="1.0" encoding="UTF-8"?>
<svg width="27px" height="28px" viewBox="0 0 27 28" version="1.1" xmlns="http://www.w3.org/2000/svg" xmlns:xlink="http://www.w3.org/1999/xlink">
    <!-- Generator: Sketch 51.1 (57501) - http://www.bohemiancoding.com/sketch -->
    <title>Group 6 Copy</title>
    <desc>Created with Sketch.</desc>
    <defs>
        <polygon id="path-1" points="0 0.0697507582 26.9811 0.0697507582 26.9811 27.1999523 0 27.1999523"></polygon>
    </defs>
    <g id="Page-1" stroke="none" stroke-width="1" fill="none" fill-rule="evenodd">
        <g id="home" transform="translate(-356.000000, -9163.000000)">
            <g id="Group-6-Copy" transform="translate(356.000000, 9163.000000)">
                <g id="Group-3">
                    <mask id="mask-2" fill="white">
                        <use xlink:href="#path-1"></use>
                    </mask>
                    <g id="Clip-2"></g>
                    <path d="M3.23056588,23.9908295 C3.38335412,23.9704692 3.47960118,23.967447 3.57076588,23.9440646 C4.64584235,23.6664973 5.73013059,23.4180388 6.79027765,23.0914798 C7.26214235,22.946254 7.61584235,23.0210143 8.02608353,23.255157 C10.3414129,24.5771406 12.8333541,25.018226 15.4518776,24.5613932 C21.5213188,23.5021839 25.5311365,17.800364 24.5494482,11.6771827 C23.5645835,5.53427743 17.5243659,1.32432187 11.4488894,2.54657216 C4.03802471,4.03732304 0.158918824,12.0594143 3.69036,18.7412295 C4.19780118,19.7013418 4.27562471,20.4828248 3.93240706,21.4443687 C3.64271294,22.2557558 3.46880118,23.1084996 3.23056588,23.9908295 M-6.35294118e-05,27.1999523 C0.438130588,25.5961067 0.859012941,24.0577956 1.27878353,22.5191663 C1.46635412,21.8313722 1.82211882,21.1346704 1.78971882,20.4570564 C1.75858941,19.8096646 1.31864824,19.1834283 1.06564235,18.5449441 C-2.05428706,10.6725324 2.72344235,1.92033591 11.0176835,0.31235462 C18.2571776,-1.09122901 25.3858129,3.74384936 26.7443894,10.9793675 C28.1687188,18.5641909 23.0121953,25.8067078 15.4016894,26.8695757 C12.6470541,27.2543523 10.0028012,26.8228108 7.51371882,25.5561815 C7.21036588,25.4018891 6.95164235,25.3958447 6.63161294,25.4823757 C4.54197176,26.0476903 2.44677176,26.5923265 0.352842353,27.1420529 C0.260724706,27.1662306 0.164318824,27.1735476 -6.35294118e-05,27.1999523" id="Fill-1" fill="#FFFFFF" mask="url(#mask-2)"></path>
                </g>
                <path d="M9.50456158,8.01892823 C10.347467,7.92276001 10.3251135,8.19149592 10.6323514,8.8605116 C10.9428526,9.53666185 11.2381795,10.2193521 11.57495,10.8845033 C11.7634045,11.2563933 11.7376246,11.5825032 11.4760726,11.8955329 C11.2455218,12.1715521 11.0046917,12.4416257 10.7491768,12.6984707 C10.554359,12.8942257 10.5132417,13.0877513 10.6602524,13.3144229 C11.8025639,15.0765159 13.3904763,16.3683211 15.5111193,17.076577 C15.6718358,17.130235 15.9780947,17.0306481 16.1099313,16.9075766 C16.476724,16.564968 16.806968,16.1852002 17.1130638,15.7950278 C17.3395354,15.5065231 17.5976609,15.4146654 17.9401423,15.5619648 C18.8662613,15.9598663 19.7923804,16.3586597 20.7047937,16.7815323 C20.8428305,16.8454463 20.986578,17.0358504 20.9944099,17.174083 C21.0451539,18.0660543 20.7560272,18.8166718 19.897458,19.3514681 C18.7701577,20.0537785 17.5725337,20.1447444 16.2905539,19.820121 C12.9373697,18.9709571 10.4654346,17.0544301 8.49392354,14.5188295 C7.82756161,13.6617878 7.24539233,12.7723433 7.06346443,11.7155334 C6.83927705,10.4122831 7.19448515,9.20906564 8.36192383,8.44492221 C8.78370287,8.16890308 9.00984822,8.08640948 9.50456158,8.01892823" id="Fill-4" fill="#FFFFFF"></path>
            </g>
        </g>
    </g>
</svg>